<?xml version="1.0" standalone="no"?>
<!DOCTYPE svg PUBLIC "-//W3C//DTD SVG 20010904//EN"
 "http://www.w3.org/TR/2001/REC-SVG-20010904/DTD/svg10.dtd">
<svg version="1.0" xmlns="http://www.w3.org/2000/svg"
 width="700.000000pt" height="700.000000pt" viewBox="0 0 700.000000 700.000000"
 preserveAspectRatio="xMidYMid meet">
<metadata>
Created by potrace 1.14, written by Peter Selinger 2001-2017
</metadata>
<g transform="translate(0.000000,700.000000) scale(0.100000,-0.100000)"
fill="#000000" stroke="none">
<path d="M180 6978 c-18 -13 -43 -36 -54 -51 l-21 -28 0 -3399 0 -3399 21 -27
c11 -15 33 -37 48 -48 l27 -21 1894 0 1894 0 27 21 c15 11 37 33 48 48 l21 27
3 2332 c2 1647 -1 2351 -8 2396 -26 151 -109 235 -262 261 -78 14 -166 1 -246
-35 -63 -29 -163 -122 -190 -177 -23 -45 -27 -42 -37 27 -16 116 -73 154 -229
155 -121 0 -170 -19 -204 -79 l-22 -39 0 -1442 0 -1442 22 -39 c37 -66 83 -81
232 -77 135 3 154 10 200 72 21 27 21 34 26 1313 l5 1285 33 29 c26 24 41 29
81 29 40 0 54 -5 79 -28 17 -16 33 -43 37 -63 3 -19 4 -926 3 -2016 l-3 -1982
-21 -27 c-11 -15 -33 -37 -48 -48 -27 -21 -31 -21 -1439 -24 -1360 -2 -1413
-2 -1447 16 -19 11 -45 34 -57 52 l-23 33 0 2909 c0 3194 -5 2952 61 2999 l34
24 2835 0 2835 0 34 -24 c66 -47 61 194 61 -2996 0 -2550 -2 -2910 -15 -2935
-8 -16 -29 -39 -47 -52 -32 -23 -39 -23 -330 -28 -280 -5 -298 -6 -324 -26
-64 -47 -69 -63 -69 -214 0 -151 5 -167 69 -214 27 -21 38 -21 556 -21 518 0
529 0 556 21 15 11 37 33 48 48 l21 27 0 3399 0 3399 -21 28 c-11 15 -36 38
-54 51 l-33 22 -3287 0 -3287 0 -33 -22z"/>
<path d="M1581 5038 c-26 -14 -51 -38 -62 -58 -18 -33 -19 -91 -19 -1480 0
-1389 1 -1447 19 -1480 11 -20 36 -44 62 -58 41 -21 54 -23 171 -20 137 3 156
10 202 72 20 27 21 40 24 527 l3 499 35 0 c40 0 87 -40 98 -85 4 -14 36 -224
71 -467 45 -306 71 -451 83 -472 10 -17 37 -41 62 -53 38 -20 60 -23 154 -23
91 0 117 4 153 21 48 23 83 77 83 126 0 15 -29 222 -64 460 -55 379 -67 439
-91 490 -37 75 -102 138 -178 173 l-61 28 34 7 c90 19 168 86 199 170 30 80
39 166 86 865 l44 645 -22 44 c-37 76 -59 86 -205 89 -117 3 -130 1 -171 -20
-80 -43 -75 -12 -126 -782 -34 -513 -49 -695 -60 -716 -20 -39 -53 -60 -92
-60 l-33 0 -2 739 c-3 729 -3 740 -24 767 -46 62 -65 69 -202 72 -117 3 -130
1 -171 -20z"/>
<path d="M4320 5049 c-37 -15 -78 -58 -90 -94 -8 -24 18 -344 120 -1446 71
-778 132 -1428 135 -1446 7 -41 50 -92 92 -109 46 -20 510 -20 556 0 47 19 85
68 92 119 3 23 64 673 135 1444 98 1064 127 1410 119 1436 -12 44 -67 94 -114
103 -19 3 -83 5 -143 3 -93 -4 -112 -7 -140 -27 -67 -48 -59 29 -133 -1342
-38 -690 -68 -1270 -69 -1287 0 -28 -4 -33 -25 -33 -14 0 -25 6 -25 13 0 6
-31 587 -69 1289 -77 1431 -65 1322 -151 1366 -38 19 -59 22 -155 21 -60 0
-121 -5 -135 -10z"/>
<path d="M4580 461 c-19 -10 -45 -36 -57 -57 -20 -35 -23 -53 -23 -163 0 -143
15 -183 80 -220 36 -20 52 -21 277 -21 232 0 241 1 273 23 67 45 75 65 78 205
3 117 1 130 -20 171 -41 77 -56 81 -333 81 -215 0 -244 -2 -275 -19z"/>
</g>
</svg>
