<?xml version="1.0" encoding="UTF-8" standalone="no"?><!DOCTYPE svg PUBLIC "-//W3C//DTD SVG 1.1//EN" "http://www.w3.org/Graphics/SVG/1.1/DTD/svg11.dtd"><svg width="100%" height="100%" viewBox="0 0 1000 1000" version="1.1" xmlns="http://www.w3.org/2000/svg" xmlns:xlink="http://www.w3.org/1999/xlink" xml:space="preserve" xmlns:serif="http://www.serif.com/" style="fill-rule:evenodd;clip-rule:evenodd;stroke-linejoin:round;stroke-miterlimit:2;"><g id="LOGO-2" serif:id="LOGO 2"><path d="M242.637,680.979c-0,10.694 8.669,19.363 19.363,19.363c7.306,0 15.612,0 22.918,0c5.135,0 10.06,-2.04 13.691,-5.671c3.632,-3.631 5.672,-8.556 5.672,-13.692l-0,-122.417l3.082,-0c8.63,-0 14.178,6.78 15.411,15.411c-0,-0 11.054,75.538 16.07,109.81c1.391,9.51 9.548,16.559 19.159,16.559l22.505,0c5.625,0 10.971,-2.445 14.65,-6.701c3.678,-4.255 5.323,-9.9 4.509,-15.465c-5.304,-36.245 -15.249,-104.203 -15.249,-104.203c-3.082,-20.343 -17.26,-35.137 -36.37,-40.069c28.356,-4.315 34.52,-22.808 36.37,-52.397c-0,-0 7.696,-113.52 10.927,-161.177c0.363,-5.35 -1.51,-10.612 -5.171,-14.53c-3.662,-3.918 -8.785,-6.142 -14.148,-6.142l-22.788,-0c-10.202,-0 -18.654,7.915 -19.322,18.096c-3.089,47.109 -11.142,169.917 -11.142,169.917c-0.616,8.63 -6.781,15.411 -15.411,15.411l-3.082,0l-0,-184.061c-0,-5.136 -2.04,-10.061 -5.672,-13.692c-3.631,-3.631 -8.556,-5.671 -13.691,-5.671l-22.918,-0c-10.694,-0 -19.363,8.669 -19.363,19.363c-0,67.813 -0,294.145 -0,361.958Z" style="fill:#6d00ff;fill-rule:nonzero;"/><path d="M532.363,294.726c-25.274,0 -45,17.877 -50.548,34.521c0,-0 -1.083,-6.502 -2.235,-13.41c-1.556,-9.336 -9.634,-16.179 -19.1,-16.179c-6.186,-0 -13.281,-0 -19.713,-0c-10.694,-0 -19.363,8.669 -19.363,19.363c0,67.813 0,294.145 0,361.958c0,10.694 8.669,19.363 19.363,19.363c7.306,0 15.612,0 22.918,0c5.135,0 10.06,-2.04 13.692,-5.671c3.631,-3.631 5.671,-8.556 5.671,-13.692l-0,-316.595c-0,-8.631 6.781,-15.411 15.411,-15.411c8.63,-0 15.411,6.78 15.411,15.411l-0,504.576c-0,5.136 -2.04,10.061 -5.671,13.692c-3.632,3.632 -8.557,5.672 -13.692,5.672l-352.164,-0c-10.694,-0 -19.363,-8.67 -19.363,-19.363l0,-737.922c0,-5.135 2.04,-10.06 5.672,-13.691c3.631,-3.632 8.556,-5.672 13.691,-5.672l715.314,0c5.135,0 10.06,2.04 13.691,5.672c3.632,3.631 5.672,8.556 5.672,13.691l-0,737.922c-0,10.693 -8.669,19.363 -19.363,19.363l-62.986,-0c-5.136,-0 -10.061,2.04 -13.692,5.671c-3.632,3.631 -5.672,8.556 -5.672,13.692l0,22.95c0,5.135 2.04,10.06 5.672,13.692c3.631,3.631 8.556,5.671 13.692,5.671l122.867,-0c5.135,0 10.06,-2.04 13.691,-5.671c3.632,-3.632 5.672,-8.557 5.672,-13.692l-0,-861.274c-0,-10.694 -8.669,-19.363 -19.363,-19.363l-835.076,-0c-10.694,0 -19.363,8.669 -19.363,19.363l0,861.274c0,5.135 2.04,10.06 5.672,13.692c3.631,3.631 8.556,5.671 13.691,5.671c81.054,-0 392.635,-0 473.689,-0c5.135,0 10.06,-2.04 13.691,-5.671c3.632,-3.632 5.672,-8.557 5.672,-13.692c-0,-104.118 -0,-592.76 -0,-592.76c-0,-24.041 -13.562,-43.151 -43.151,-43.151Z" style="fill:#6d00ff;fill-rule:nonzero;"/><path d="M671.062,644.863c-0,0 -13.688,-255.496 -17.512,-326.878c-0.55,-10.277 -9.044,-18.327 -19.335,-18.327l-22.057,-0c-5.445,-0 -10.639,2.292 -14.308,6.315c-3.669,4.024 -5.474,9.406 -4.974,14.828c6.511,70.534 27.414,296.98 33.412,361.958c0.919,9.962 9.277,17.583 19.281,17.583c16.415,0 40.735,0 57.15,0c10.004,0 18.361,-7.621 19.281,-17.583c5.998,-64.978 26.9,-291.424 33.411,-361.958c0.501,-5.422 -1.305,-10.804 -4.974,-14.828c-3.669,-4.023 -8.862,-6.315 -14.307,-6.315l-22.057,-0c-10.292,-0 -18.785,8.05 -19.336,18.327c-3.824,71.382 -17.511,326.878 -17.511,326.878l-6.164,0Z" style="fill:#6d00ff;fill-rule:nonzero;"/><path d="M719.693,907.47c-0,-10.694 -8.669,-19.364 -19.363,-19.364l-52.372,0c-10.694,0 -19.363,8.67 -19.363,19.364l-0,23.167c-0,10.694 8.669,19.363 19.363,19.363l52.372,-0c10.694,0 19.363,-8.669 19.363,-19.363l-0,-23.167Z" style="fill:#6d00ff;"/></g></svg>