<svg width="484" height="295" viewBox="0 0 484 295" fill="none" xmlns="http://www.w3.org/2000/svg">
<g id="Vector">
<path d="M278.751 279.868C304 247.5 297.5 227.5 268.5 195.5C247.203 172 256.5 183.5 241.5 168.5L394.483 15.6011C414.661 -4.57695 447.647 -4.31195 468.155 16.1961C488.663 36.7051 488.927 69.688 468.75 89.867L278.751 279.868Z" fill="#6D00FF"/>
<path d="M205.249 279.868C225.429 300.047 258.413 299.781 278.921 279.273C299.43 258.765 299.695 225.78 279.517 205.601L89.517 15.601C69.339 -4.577 36.353 -4.312 15.847 16.196C-4.66201 36.705 -4.92601 69.688 15.251 89.867L205.25 279.868H205.249Z" fill="#6D00FF"/>
</g>
</svg>
