<?xml version="1.0" encoding="UTF-8" standalone="no"?><!DOCTYPE svg PUBLIC "-//W3C//DTD SVG 1.1//EN" "http://www.w3.org/Graphics/SVG/1.1/DTD/svg11.dtd"><svg width="100%" height="100%" viewBox="0 0 1000 1000" version="1.1" xmlns="http://www.w3.org/2000/svg" xmlns:xlink="http://www.w3.org/1999/xlink" xml:space="preserve" xmlns:serif="http://www.serif.com/" style="fill-rule:evenodd;clip-rule:evenodd;stroke-linejoin:round;stroke-miterlimit:2;"><g id="LOGOS"><g id="LOGO-2" serif:id="LOGO 2"><path d="M214.041,701.088c0,11.882 9.633,21.515 21.515,21.515c8.117,-0 17.347,-0 25.464,-0c5.706,-0 11.178,-2.267 15.213,-6.302c4.035,-4.035 6.301,-9.507 6.301,-15.213l0,-136.02l3.425,0c9.589,0 15.753,7.535 17.123,17.124c0,-0 12.283,83.931 17.856,122.011c1.546,10.567 10.609,18.4 21.287,18.4l25.006,-0c6.25,-0 12.191,-2.718 16.277,-7.446c4.087,-4.729 5.916,-11 5.011,-17.184c-5.894,-40.272 -16.944,-115.781 -16.944,-115.781c-3.424,-22.603 -19.178,-39.041 -40.411,-44.521c31.507,-4.794 38.357,-25.342 40.411,-58.219c0,0 8.552,-126.133 12.142,-179.085c0.403,-5.945 -1.678,-11.791 -5.746,-16.145c-4.069,-4.353 -9.761,-6.825 -15.72,-6.825l-25.32,0c-11.336,0 -20.727,8.796 -21.469,20.107c-3.432,52.344 -12.38,188.797 -12.38,188.797c-0.685,9.589 -7.534,17.124 -17.123,17.124l-3.425,-0l0,-204.513c0,-5.706 -2.266,-11.178 -6.301,-15.213c-4.035,-4.035 -9.507,-6.302 -15.213,-6.302l-25.464,0c-11.882,0 -21.515,9.633 -21.515,21.515c0,75.348 0,326.828 0,402.176Z" style="fill:#6d00ff;fill-rule:nonzero;"/><path d="M535.959,271.918c-28.082,-0 -50,19.863 -56.164,38.356c-0,-0 -1.204,-7.224 -2.484,-14.899c-1.729,-10.374 -10.704,-17.978 -21.222,-17.978c-6.873,0 -14.757,0 -21.903,0c-11.882,0 -21.515,9.633 -21.515,21.515c0,75.348 0,326.828 0,402.176c0,11.882 9.633,21.515 21.515,21.515c8.117,-0 17.347,-0 25.464,-0c5.706,-0 11.178,-2.267 15.213,-6.302c4.035,-4.035 6.301,-9.507 6.301,-15.213l0,-351.773c0,-9.589 7.535,-17.123 17.124,-17.123c9.589,-0 17.123,7.534 17.123,17.123l-0,560.641c-0,5.706 -2.267,11.178 -6.302,15.213c-4.034,4.035 -9.507,6.302 -15.213,6.302l-391.292,-0c-11.882,-0 -21.515,-9.633 -21.515,-21.515l0,-819.912c0,-5.706 2.267,-11.178 6.302,-15.213c4.034,-4.035 9.507,-6.302 15.213,-6.302l794.792,0c5.706,0 11.179,2.267 15.213,6.302c4.035,4.035 6.302,9.507 6.302,15.213l-0,819.912c-0,11.882 -9.633,21.515 -21.515,21.515l-69.984,-0c-5.706,-0 -11.179,2.266 -15.213,6.301c-4.035,4.035 -6.302,9.507 -6.302,15.213l0,25.5c0,5.706 2.267,11.179 6.302,15.214c4.034,4.034 9.507,6.301 15.213,6.301l136.519,-0c5.706,0 11.178,-2.267 15.213,-6.301c4.034,-4.035 6.301,-9.508 6.301,-15.214l0,-956.97c0,-11.883 -9.632,-21.515 -21.514,-21.515l-927.862,-0c-11.882,0 -21.514,9.632 -21.514,21.515l-0,956.97c-0,5.706 2.267,11.179 6.301,15.214c4.035,4.034 9.507,6.301 15.213,6.301c90.06,-0 436.261,-0 526.32,-0c5.707,0 11.179,-2.267 15.214,-6.301c4.034,-4.035 6.301,-9.508 6.301,-15.214c0,-115.687 0,-658.622 0,-658.622c0,-26.712 -15.068,-47.945 -47.945,-47.945Z" style="fill:#6d00ff;fill-rule:nonzero;"/><path d="M690.068,660.959c0,-0 -15.208,-283.884 -19.457,-363.198c-0.611,-11.419 -10.048,-20.364 -21.483,-20.364l-24.509,0c-6.049,0 -11.82,2.548 -15.896,7.018c-4.077,4.47 -6.083,10.45 -5.527,16.474c7.234,78.373 30.459,329.978 37.124,402.177c1.022,11.069 10.307,19.537 21.423,19.537c18.239,-0 45.261,-0 63.5,-0c11.116,-0 20.402,-8.468 21.423,-19.537c6.665,-72.199 29.89,-323.804 37.124,-402.177c0.556,-6.024 -1.45,-12.004 -5.526,-16.474c-4.077,-4.47 -9.847,-7.018 -15.897,-7.018l-24.508,0c-11.435,0 -20.872,8.945 -21.484,20.364c-4.249,79.314 -19.457,363.198 -19.457,363.198l-6.85,-0Z" style="fill:#6d00ff;fill-rule:nonzero;"/><path d="M744.103,952.744c0,-11.882 -9.632,-21.515 -21.515,-21.515l-58.19,0c-11.882,0 -21.515,9.633 -21.515,21.515l0,25.741c0,11.883 9.633,21.515 21.515,21.515l58.19,-0c11.883,0 21.515,-9.632 21.515,-21.515l0,-25.741Z" style="fill:#6d00ff;"/></g></g></svg>