<?xml version="1.0" encoding="UTF-8" standalone="no"?><!DOCTYPE svg PUBLIC "-//W3C//DTD SVG 1.1//EN" "http://www.w3.org/Graphics/SVG/1.1/DTD/svg11.dtd"><svg width="100%" height="100%" viewBox="0 0 1924 5212" version="1.1" xmlns="http://www.w3.org/2000/svg" xmlns:xlink="http://www.w3.org/1999/xlink" xml:space="preserve" xmlns:serif="http://www.serif.com/" style="fill-rule:evenodd;clip-rule:evenodd;stroke-linecap:square;stroke-miterlimit:1.5;"><rect id="AB-1" serif:id="AB 1" x="0" y="0" width="1920" height="1080" style="fill:none;"/><g id="AB-11" serif:id="AB 1"><rect id="BG" x="0" y="0" width="1920" height="1080" style="fill:#6d00ff;"/><g id="BG1" serif:id="BG"><rect x="0" y="0" width="1920" height="1080" style="fill:url(#_Linear1);"/></g><g id="SHADOW"><path d="M1120.34,708.799c-0,-2.26 -0.898,-4.427 -2.496,-6.025c-1.598,-1.598 -3.765,-2.496 -6.025,-2.496c-45.377,0 -258.257,0 -303.634,0c-2.26,0 -4.427,0.898 -6.025,2.496c-1.598,1.598 -2.496,3.765 -2.496,6.025c0,17.572 0,57.657 0,75.229c0,2.26 0.898,4.427 2.496,6.025c1.598,1.598 3.765,2.496 6.025,2.496c45.377,0 258.257,0 303.634,0c2.26,0 4.427,-0.898 6.025,-2.496c1.598,-1.598 2.496,-3.765 2.496,-6.025c-0,-17.572 -0,-57.657 -0,-75.229Z"/><text x="401.033px" y="433.576px" style="font-family:'Monologue-Regular', 'Monologue';font-size:156.267px;">KNV HELPS Y<tspan x="924.527px " y="433.576px ">O</tspan>UR BUSINE<tspan x="1413.02px " y="433.576px ">S</tspan>S</text><text x="403.22px" y="591.715px" style="font-family:'Monologue-Regular', 'Monologue';font-size:156.267px;">SCAL<tspan x="606.211px " y="591.715px ">E</tspan> T<tspan x="725.599px " y="591.715px ">O</tspan> 6 &amp; 7 FIGURE<tspan x="1333.63px " y="591.715px ">S</tspan></text><text x="407.615px" y="649.903px" style="font-family:'AvocadoSansFont-Regular', 'Avocado Sans Font';font-size:37.5px;">W<tspan x="445.64px " y="649.903px ">I</tspan>TH D<tspan x="528.74px 534.702px 562.227px 567.815px 584.24px 606.665px " y="649.903px 649.903px 649.903px 649.903px 649.903px 649.903px ">IGITAL</tspan> MARK<tspan x="731.577px 747.515px 768.627px 774.59px " y="649.903px 649.903px 649.903px 649.903px ">ETIN</tspan>G</text></g><g id="TEXT-1" serif:id="TEXT 1"><g id="CALL"><path d="M1120.34,699.025c-0,-2.26 -0.898,-4.428 -2.496,-6.026c-1.598,-1.598 -3.765,-2.496 -6.025,-2.496c-45.377,0 -258.257,0 -303.634,0c-2.26,0 -4.427,0.898 -6.025,2.496c-1.598,1.598 -2.496,3.766 -2.496,6.026c0,17.572 0,57.656 0,75.228c0,2.26 0.898,4.428 2.496,6.026c1.598,1.598 3.765,2.496 6.025,2.496c45.377,-0 258.257,-0 303.634,-0c2.26,-0 4.427,-0.898 6.025,-2.496c1.598,-1.598 2.496,-3.766 2.496,-6.026c-0,-17.572 -0,-57.656 -0,-75.228Z" style="fill:#fff;"/><text x="826.196px" y="750.221px" style="font-family:'AvocadoSansBold-Regular', 'Avocado Sans Bold';font-size:38.806px;fill:#6d00ff;">C<tspan x="848.237px 876.992px 903.691px 921.231px 943.311px " y="750.221px 750.221px 750.221px 750.221px 750.221px ">ONTAC</tspan>T N<tspan x="1027.64px 1054.84px " y="750.221px 750.221px ">OW</tspan></text></g><text x="401.033px" y="423.802px" style="font-family:'Monologue-Regular', 'Monologue';font-size:156.267px;fill:#fff;">KNV HELPS Y<tspan x="924.527px " y="423.802px ">O</tspan>UR BUSINE<tspan x="1413.02px " y="423.802px ">S</tspan>S</text><text x="403.22px" y="581.941px" style="font-family:'Monologue-Regular', 'Monologue';font-size:156.267px;fill:#fff;">SCAL<tspan x="606.211px " y="581.941px ">E</tspan> T<tspan x="725.599px " y="581.941px ">O</tspan> 6 &amp; 7 FIGURE<tspan x="1333.63px " y="581.941px ">S</tspan></text><text x="407.615px" y="640.128px" style="font-family:'AvocadoSansFont-Regular', 'Avocado Sans Font';font-size:37.5px;fill:#fff;">W<tspan x="445.64px " y="640.128px ">I</tspan>TH D<tspan x="528.74px 534.702px 562.227px 567.815px 584.24px 606.665px " y="640.128px 640.128px 640.128px 640.128px 640.128px 640.128px ">IGITAL</tspan> MARK<tspan x="731.577px 747.515px 768.627px 774.59px " y="640.128px 640.128px 640.128px 640.128px ">ETIN</tspan>G</text></g><g id="TOP-BAR" serif:id="TOP BAR"><g id="LOGOS"><g id="LOGO-2" serif:id="LOGO 2"><path d="M33.323,77.949c0,1.031 0.836,1.867 1.867,1.867l2.21,0c0.495,0 0.97,-0.197 1.32,-0.547c0.35,-0.35 0.547,-0.825 0.547,-1.32l-0,-11.803l0.297,0c0.832,0 1.367,0.654 1.486,1.486c-0,0 1.065,7.283 1.549,10.588c0.134,0.916 0.921,1.596 1.847,1.596l2.17,0c0.542,0 1.058,-0.236 1.413,-0.646c0.354,-0.41 0.513,-0.954 0.434,-1.491c-0.511,-3.495 -1.47,-10.047 -1.47,-10.047c-0.297,-1.961 -1.664,-3.388 -3.507,-3.863c2.734,-0.416 3.329,-2.199 3.507,-5.052c0,-0 0.742,-10.945 1.054,-15.54c0.035,-0.516 -0.146,-1.023 -0.499,-1.401c-0.353,-0.378 -0.847,-0.592 -1.364,-0.592l-2.197,-0c-0.984,-0 -1.799,0.763 -1.863,1.745c-0.298,4.542 -1.074,16.382 -1.074,16.382c-0.06,0.832 -0.654,1.486 -1.486,1.486l-0.297,0l-0,-17.746c-0,-0.495 -0.197,-0.97 -0.547,-1.32c-0.35,-0.35 -0.825,-0.547 -1.32,-0.547l-2.21,-0c-1.031,-0 -1.867,0.836 -1.867,1.867l0,34.898Z" style="fill:#fff;fill-rule:nonzero;"/><path d="M61.257,40.708c-2.436,0 -4.338,1.724 -4.873,3.329c-0,-0 -0.105,-0.627 -0.216,-1.293c-0.15,-0.9 -0.929,-1.56 -1.841,-1.56l-1.901,-0c-1.031,-0 -1.867,0.836 -1.867,1.867l0,34.898c0,1.031 0.836,1.867 1.867,1.867l2.21,0c0.495,0 0.97,-0.197 1.32,-0.547c0.35,-0.35 0.547,-0.825 0.547,-1.32l-0,-30.525c-0,-0.832 0.653,-1.485 1.485,-1.485c0.833,-0 1.486,0.653 1.486,1.485l0,48.65c0,0.495 -0.196,0.97 -0.547,1.32c-0.35,0.35 -0.824,0.546 -1.32,0.546l-33.954,0c-1.031,0 -1.867,-0.835 -1.867,-1.866l0,-71.148c0,-0.495 0.197,-0.97 0.547,-1.32c0.35,-0.35 0.825,-0.546 1.32,-0.546l68.968,-0c0.495,-0 0.97,0.196 1.32,0.546c0.35,0.35 0.547,0.825 0.547,1.32l-0,71.148c-0,1.031 -0.836,1.866 -1.867,1.866l-6.073,0c-0.495,0 -0.97,0.197 -1.32,0.547c-0.35,0.35 -0.547,0.825 -0.547,1.32l-0,2.213c-0,0.495 0.197,0.97 0.547,1.32c0.35,0.35 0.825,0.547 1.32,0.547l11.846,0c0.495,0 0.97,-0.197 1.32,-0.547c0.35,-0.35 0.547,-0.825 0.547,-1.32l0,-83.04c0,-1.031 -0.836,-1.867 -1.867,-1.867l-80.514,-0c-1.031,-0 -1.867,0.836 -1.867,1.867l-0,83.04c-0,0.495 0.197,0.97 0.547,1.32c0.35,0.35 0.825,0.547 1.32,0.547l45.671,0c0.495,0 0.97,-0.197 1.32,-0.547c0.35,-0.35 0.547,-0.825 0.547,-1.32l-0,-57.151c-0,-2.318 -1.308,-4.161 -4.161,-4.161Z" style="fill:#fff;fill-rule:nonzero;"/><path d="M74.63,74.467c0,0 -1.32,-24.634 -1.688,-31.516c-0.053,-0.991 -0.872,-1.767 -1.865,-1.767l-2.126,-0c-0.525,-0 -1.026,0.221 -1.38,0.609c-0.353,0.388 -0.528,0.907 -0.479,1.429c0.628,6.801 2.643,28.634 3.221,34.899c0.089,0.96 0.895,1.695 1.859,1.695l5.51,0c0.965,0 1.771,-0.735 1.859,-1.695c0.579,-6.265 2.594,-28.098 3.222,-34.899c0.048,-0.522 -0.126,-1.041 -0.48,-1.429c-0.354,-0.388 -0.854,-0.609 -1.379,-0.609l-2.127,-0c-0.992,-0 -1.811,0.776 -1.864,1.767c-0.369,6.882 -1.689,31.516 -1.689,31.516l-0.594,0Z" style="fill:#fff;fill-rule:nonzero;"/><path d="M79.319,99.786c-0,-1.031 -0.836,-1.866 -1.867,-1.866l-5.049,-0c-1.032,-0 -1.867,0.835 -1.867,1.866l-0,2.234c-0,1.031 0.835,1.867 1.867,1.867l5.049,0c1.031,0 1.867,-0.836 1.867,-1.867l-0,-2.234Z" style="fill:#fff;"/></g></g><g id="ACTIONS"><text x="565.654px" y="70.996px" style="font-family:'AvocadoSansFont-Regular', 'Avocado Sans Font';font-size:29.989px;fill:#fff;">H<tspan x="583.287px 605.269px 630.309px " y="70.996px 70.996px 70.996px ">OME</tspan></text><text x="739.657px" y="70.996px" style="font-family:'AvocadoSansFont-Regular', 'Avocado Sans Font';font-size:29.989px;fill:#fff;">ABOU<tspan x="813.789px " y="70.996px ">T</tspan></text><text x="927.122px" y="70.996px" style="font-family:'AvocadoSansFont-Regular', 'Avocado Sans Font';font-size:29.989px;fill:#fff;">H<tspan x="944.756px 965.688px " y="70.996px 70.996px ">OW</tspan> IT W<tspan x="1061.68px " y="70.996px ">O</tspan>RK<tspan x="1119.41px " y="70.996px ">S</tspan></text><text x="1231.3px" y="70.996px" style="font-family:'AvocadoSansFont-Regular', 'Avocado Sans Font';font-size:29.989px;fill:#fff;">C<tspan x="1247.53px 1269.66px 1290.02px 1303.16px 1319.29px " y="70.996px 70.996px 70.996px 70.996px 70.996px ">ONTAC</tspan>T</text></g></g></g><rect id="AB-2" serif:id="AB 2" x="2.439" y="1080" width="1920" height="1263" style="fill:none;"/><g id="v1"></g><rect id="BG2" serif:id="BG" x="2.439" y="1080" width="1920" height="1263" style="fill:#fff;"/><g id="BG3" serif:id="BG"><rect id="BG4" serif:id="BG" x="2.439" y="1080" width="1920" height="1263" style="fill:url(#_Linear2);"/></g><g id="TEXT"><g id="CALL1" serif:id="CALL"><path d="M651.639,1959.54c0,-4.706 -3.815,-8.521 -8.521,-8.521c-37.471,0 -187.403,0 -224.875,0c-4.706,0 -8.521,3.815 -8.521,8.521c0,13.384 0,39.183 0,52.567c0,4.706 3.815,8.521 8.521,8.521c37.472,0 187.404,0 224.875,0c4.706,0 8.521,-3.815 8.521,-8.521c0,-13.384 0,-39.183 0,-52.567Z" style="fill:#6d00ff;"/><text x="429.739px" y="1996.07px" style="font-family:'AvocadoSansBold-Regular', 'Avocado Sans Bold';font-size:29.275px;fill:#fff;">C<tspan x="446.367px 468.06px 488.201px 501.433px 518.091px " y="1996.07px 1996.07px 1996.07px 1996.07px 1996.07px ">ONTAC</tspan>T N<tspan x="581.705px 602.227px " y="1996.07px 1996.07px ">OW</tspan></text></g><g transform="matrix(1.08048,0,0,1.08048,-31.5045,19.5944)"><text x="409.722px" y="1651.9px" style="font-family:'AvocadoSansFont-Regular', 'Avocado Sans Font';font-size:26.994px;fill:#6d00ff;">V<tspan x="424.92px 429.752px 441.387px 450.43px 464.872px " y="1651.9px 1651.9px 1651.9px 1651.9px 1651.9px ">iktor</tspan> T<tspan x="492.811px 499.478px " y="1651.9px 1651.9px ">ra</tspan>jk<tspan x="529.172px 542.669px 554.789px 564.561px 575.926px " y="1651.9px 1651.9px 1651.9px 1651.9px 1651.9px ">ovski</tspan> - Gr<tspan x="632.209px 647.137px 661.471px 674.131px " y="1651.9px 1651.9px 1651.9px 1651.9px ">aphi</tspan>c D<tspan x="714.811px 728.605px 738.053px 742.48px " y="1651.9px 1651.9px 1651.9px 1651.9px ">esig</tspan>n (L<tspan x="796.01px 810.047px " y="1651.9px 1651.9px ">og</tspan>o</text><text x="409.722px" y="1678.89px" style="font-family:'AvocadoSansFont-Regular', 'Avocado Sans Font';font-size:26.994px;fill:#6d00ff;">D<tspan x="426.891px 440.685px 450.133px 454.56px " y="1678.89px 1678.89px 1678.89px 1678.89px ">esig</tspan>n, W<tspan x="517.51px " y="1678.89px ">e</tspan>b D<tspan x="570.635px 584.429px 593.877px 598.304px " y="1678.89px 1678.89px 1678.89px 1678.89px ">esig</tspan>n, M<tspan x="658.717px 672.349px 681.932px " y="1678.89px 1678.89px 1678.89px ">oti</tspan>on Gr<tspan x="746.421px 761.349px 775.683px 788.343px " y="1678.89px 1678.89px 1678.89px 1678.89px ">aphi</tspan>cs),</text><text x="409.722px" y="1705.88px" style="font-family:'AvocadoSansFont-Regular', 'Avocado Sans Font';font-size:26.994px;fill:#6d00ff;">Mus<tspan x="452.454px " y="1705.88px ">i</tspan>c Pr<tspan x="498.452px 512.489px " y="1705.88px 1705.88px ">od</tspan>uc<tspan x="549.229px " y="1705.88px ">e</tspan>r, C<tspan x="599.627px 613.934px 625.379px 634.422px 648.756px 660.202px " y="1705.88px 1705.88px 1705.88px 1705.88px 1705.88px 1705.88px ">ontent</tspan> Cr<tspan x="700.909px 714.703px 729.091px 738.134px 752.576px " y="1705.88px 1705.88px 1705.88px 1705.88px 1705.88px ">eator</tspan>, Eu<tspan x="796.307px 802.974px 817.281px 831.183px 844.977px 860.04px " y="1705.88px 1705.88px 1705.88px 1705.88px 1705.88px 1705.88px ">ropean</tspan></text><text x="409.722px" y="1732.88px" style="font-family:'AvocadoSansFont-Regular', 'Avocado Sans Font';font-size:26.994px;fill:#6d00ff;">U<tspan x="426.108px 438.903px 443.465px 454.776px 469.191px 476.668px 486.116px 490.543px 500.126px " y="1732.88px 1732.88px 1732.88px 1732.88px 1732.88px 1732.88px 1732.88px 1732.88px 1732.88px ">niversity</tspan> Sk<tspan x="542.939px " y="1732.88px ">o</tspan>pje, M<tspan x="624.677px 639.092px 650.214px 664.143px " y="1732.88px 1732.88px 1732.88px 1732.88px ">aced</tspan>on<tspan x="705.66px 710.087px " y="1732.88px 1732.88px ">ia</tspan>. Go<tspan x="769.636px 783.673px 798.763px 803.19px " y="1732.88px 1732.88px 1732.88px 1732.88px ">ogle</tspan></text><text x="409.722px" y="1759.87px" style="font-family:'AvocadoSansFont-Regular', 'Avocado Sans Font';font-size:26.994px;fill:#6d00ff;">c<tspan x="420.844px 435.259px 443.276px 452.859px 457.313px 466.68px 471.242px 482.094px 496.482px 505.525px " y="1759.87px 1759.87px 1759.87px 1759.87px 1759.87px 1759.87px 1759.87px 1759.87px 1759.87px 1759.87px ">ertificate</tspan> f<tspan x="534.787px 549.229px " y="1759.87px 1759.87px ">or</tspan> D<tspan x="582.377px 586.804px 601.084px 605.511px 614.555px 629.752px " y="1759.87px 1759.87px 1759.87px 1759.87px 1759.87px 1759.87px ">igital</tspan> M<tspan x="662.928px 677.991px 686.278px 696.698px 710.357px 719.94px 725.042px " y="1759.87px 1759.87px 1759.87px 1759.87px 1759.87px 1759.87px 1759.87px ">arketin</tspan>g.</text></g><g transform="matrix(1.08048,0,0,1.08048,-31.5045,-2.62395)"><text x="409.722px" y="1544.9px" style="font-family:'AvocadoSansFont-Regular', 'Avocado Sans Font';font-size:26.994px;fill:#6d00ff;">Kr<tspan x="434.26px 438.822px 447.595px 457.178px " y="1544.9px 1544.9px 1544.9px 1544.9px ">isti</tspan>ja<tspan x="481.689px " y="1544.9px ">n</tspan> S<tspan x="514.865px 528.497px 538.08px 543.182px 549.849px 563.347px 575.467px 585.239px 596.603px " y="1544.9px 1544.9px 1544.9px 1544.9px 1544.9px 1544.9px 1544.9px 1544.9px 1544.9px ">otirovski</tspan> - D<tspan x="644.383px 648.81px 663.09px 667.517px 676.56px 691.758px " y="1544.9px 1544.9px 1544.9px 1544.9px 1544.9px 1544.9px ">igital</tspan> M<tspan x="724.934px 739.997px 748.284px 758.704px 772.363px 781.946px 787.048px " y="1544.9px 1544.9px 1544.9px 1544.9px 1544.9px 1544.9px 1544.9px ">arketin</tspan>g (S<tspan x="843.277px " y="1544.9px ">o</tspan>ci<tspan x="873.672px 888.87px " y="1544.9px 1544.9px ">al</tspan></text><text x="409.722px" y="1571.89px" style="font-family:'AvocadoSansFont-Regular', 'Avocado Sans Font';font-size:26.994px;fill:#6d00ff;">M<tspan x="431.588px 445.517px 460.391px 464.818px " y="1571.89px 1571.89px 1571.89px 1571.89px ">edia</tspan>, S<tspan x="505.525px " y="1571.89px ">E</tspan>O, PPC, A<tspan x="624.542px 632.749px 642.116px 647.353px 652.05px 656.477px 670.865px 679.908px " y="1571.89px 1571.89px 1571.89px 1571.89px 1571.89px 1571.89px 1571.89px 1571.89px ">ffiliate</tspan> M<tspan x="723.395px 738.458px 746.745px 757.165px 770.824px 780.407px 785.509px " y="1571.89px 1571.89px 1571.89px 1571.89px 1571.89px 1571.89px 1571.89px ">arketin</tspan>g),</text><text x="409.722px" y="1598.88px" style="font-family:'AvocadoSansFont-Regular', 'Avocado Sans Font';font-size:26.994px;fill:#6d00ff;">Ge<tspan x="443.195px 457.637px 464.845px " y="1598.88px 1598.88px 1598.88px ">org</tspan>e M<tspan x="522.612px 537.405px 546.583px " y="1598.88px 1598.88px 1598.88px ">aso</tspan>n U<tspan x="596.819px 609.615px 614.177px 625.487px 639.902px 647.38px 656.828px 661.255px 670.838px " y="1598.88px 1598.88px 1598.88px 1598.88px 1598.88px 1598.88px 1598.88px 1598.88px 1598.88px ">niversity</tspan> (GMU), Go<tspan x="809.75px 823.787px 838.877px 843.304px " y="1598.88px 1598.88px 1598.88px 1598.88px ">ogle</tspan></text><text x="409.722px" y="1625.88px" style="font-family:'AvocadoSansFont-Regular', 'Avocado Sans Font';font-size:26.994px;fill:#6d00ff;">c<tspan x="420.844px 435.259px 443.276px 452.859px 457.313px 466.68px 471.242px 482.094px 496.482px 505.525px " y="1625.88px 1625.88px 1625.88px 1625.88px 1625.88px 1625.88px 1625.88px 1625.88px 1625.88px 1625.88px ">ertificate</tspan> f<tspan x="534.787px 549.229px " y="1625.88px 1625.88px ">or</tspan> D<tspan x="582.377px 586.804px 601.084px 605.511px 614.555px 629.752px " y="1625.88px 1625.88px 1625.88px 1625.88px 1625.88px 1625.88px ">igital</tspan> M<tspan x="662.928px 677.991px 686.278px 696.698px 710.357px 719.94px 725.042px " y="1625.88px 1625.88px 1625.88px 1625.88px 1625.88px 1625.88px 1625.88px ">arketin</tspan>g.</text></g><g transform="matrix(1,0,0,1,1.46915,21.9849)"><text x="409.722px" y="1483.42px" style="font-family:'AvocadoSansFont-Regular', 'Avocado Sans Font';font-size:29.167px;fill:#6d00ff;">W<tspan x="436.089px " y="1483.42px ">e</tspan> a<tspan x="475.727px 483.222px " y="1483.42px 1483.42px ">re</tspan> you<tspan x="546.864px " y="1483.42px ">n</tspan>g a<tspan x="599.685px 612.635px " y="1483.42px 1483.42px ">nd</tspan> a<tspan x="652.127px 672.514px 687.856px 692.639px 702.993px " y="1483.42px 1483.42px 1483.42px 1483.42px 1483.42px ">mbiti</tspan>ous en<tspan x="781.656px 792.593px 800.089px 815.577px 831.21px 838.706px " y="1483.42px 1483.42px 1483.42px 1483.42px 1483.42px 1483.42px ">trepre</tspan>neu<tspan x="895.843px 903.922px " y="1483.42px 1483.42px ">rs</tspan></text><text x="409.722px" y="1512.58px" style="font-family:'AvocadoSansFont-Regular', 'Avocado Sans Font';font-size:29.167px;fill:#6d00ff;">who w<tspan x="486.139px 502.414px 514.781px " y="1512.58px 1512.58px 1512.58px ">ant</tspan> t<tspan x="543.218px " y="1512.58px ">o</tspan> ma<tspan x="602.631px 613.889px " y="1512.58px 1512.58px ">ke</tspan> a ch<tspan x="686.368px 702.643px " y="1512.58px 1512.58px ">an</tspan>ge i<tspan x="760.189px " y="1512.58px ">n</tspan> the D<tspan x="847.689px 852.472px 867.902px 872.685px 882.456px 898.877px " y="1512.58px 1512.58px 1512.58px 1512.58px 1512.58px 1512.58px ">igital</tspan></text><text x="409.722px" y="1541.75px" style="font-family:'AvocadoSansFont-Regular', 'Avocado Sans Font';font-size:29.167px;fill:#6d00ff;">M<tspan x="433.347px 449.622px 458.577px 469.835px 484.593px 494.947px 500.46px " y="1541.75px 1541.75px 1541.75px 1541.75px 1541.75px 1541.75px 1541.75px ">arketin</tspan>g a<tspan x="553.281px 560.777px 575.681px " y="1541.75px 1541.75px 1541.75px ">rea</tspan>. W<tspan x="630.543px " y="1541.75px ">e</tspan> w<tspan x="673.243px 689.518px 701.885px " y="1541.75px 1541.75px 1541.75px ">ant</tspan> t<tspan x="730.322px " y="1541.75px ">o</tspan> he<tspan x="782.531px " y="1541.75px ">l</tspan>p o<tspan x="824.968px " y="1541.75px ">t</tspan>her l<tspan x="886.481px 891.702px 902.96px " y="1541.75px 1541.75px 1541.75px ">ike</tspan>-</text><text x="409.722px" y="1570.92px" style="font-family:'AvocadoSansFont-Regular', 'Avocado Sans Font';font-size:29.167px;fill:#6d00ff;">m<tspan x="429.964px 435.477px 448.427px 463.914px 478.964px " y="1570.92px 1570.92px 1570.92px 1570.92px 1570.92px ">inded</tspan> i<tspan x="507.839px 520.789px 536.86px 541.789px 554.739px " y="1570.92px 1570.92px 1570.92px 1570.92px 1570.92px ">ndivi</tspan>dua<tspan x="603.768px 608.406px " y="1570.92px 1570.92px ">ls</tspan> e<tspan x="641.247px 653.585px 668.781px 685.056px 698.006px " y="1570.92px 1570.92px 1570.92px 1570.92px 1570.92px ">xpand</tspan> thei<tspan x="766.402px " y="1570.92px ">r</tspan> r<tspan x="790.727px 805.631px " y="1570.92px 1570.92px ">ea</tspan>ch on<tspan x="884.352px 889.427px 894.939px " y="1570.92px 1570.92px 1570.92px ">lin</tspan>e</text><text x="409.722px" y="1600.08px" style="font-family:'AvocadoSansFont-Regular', 'Avocado Sans Font';font-size:29.167px;fill:#6d00ff;">a<tspan x="425.997px 438.947px " y="1600.08px 1600.08px ">nd</tspan> sc<tspan x="484.389px 500.81px 505.593px " y="1600.08px 1600.08px 1600.08px ">ale</tspan> thei<tspan x="573.989px " y="1600.08px ">r</tspan> b<tspan x="606.014px 618.206px 628.414px 633.927px 647.168px 662.072px 671.989px 681.818px 696.722px " y="1600.08px 1600.08px 1600.08px 1600.08px 1600.08px 1600.08px 1600.08px 1600.08px 1600.08px ">usinesses</tspan>.</text></g><g transform="matrix(1.08048,0,0,1.08048,-32.9737,-152.5)"><text x="409.722px" y="1429.62px" style="font-family:'AvocadoSansBold-Regular', 'Avocado Sans Bold';font-size:30.851px;fill:#6d00ff;">KNV, me<tspan x="522.79px 540.529px 555.831px 562.988px " y="1429.62px 1429.62px 1429.62px 1429.62px ">anin</tspan>g Kr<tspan x="633.481px 640.022px 651.498px 663.283px " y="1429.62px 1429.62px 1429.62px 1429.62px ">isti</tspan>ja<tspan x="694.349px " y="1429.62px ">n</tspan> a<tspan x="735.103px 749.479px " y="1429.62px 1429.62px ">nd</tspan> V<tspan x="793.01px 799.858px 814.667px 825.834px 843.481px " y="1429.62px 1429.62px 1429.62px 1429.62px 1429.62px ">iktor</tspan>, is</text><text x="409.722px" y="1460.48px" style="font-family:'AvocadoSansBold-Regular', 'Avocado Sans Bold';font-size:30.851px;fill:#6d00ff;">a s<tspan x="446.959px " y="1460.48px ">o</tspan>ci<tspan x="485.831px 503.724px " y="1460.48px 1460.48px ">al</tspan> me<tspan x="556.293px 573.786px 580.172px " y="1460.48px 1460.48px 1460.48px ">dia</tspan> ma<tspan x="644.464px 655.169px 668.589px 685.31px 697.095px 704.253px " y="1460.48px 1460.48px 1460.48px 1460.48px 1460.48px 1460.48px ">rketin</tspan>g agen<tspan x="810.872px " y="1460.48px ">c</tspan>y</text><text x="409.722px" y="1491.33px" style="font-family:'AvocadoSansBold-Regular', 'Avocado Sans Bold';font-size:30.851px;fill:#6d00ff;">(SMMA).</text></g><g id="LOGOS1" serif:id="LOGOS"><g id="LOGO-21" serif:id="LOGO 2"><path d="M1210.03,1646.61c0,4.708 3.816,8.524 8.524,8.524l10.088,0c2.261,0 4.429,-0.898 6.028,-2.496c1.598,-1.599 2.496,-3.767 2.496,-6.028l0,-53.889l1.357,0c3.799,0 6.241,2.985 6.784,6.784c0,0 4.866,33.253 7.074,48.34c0.613,4.186 4.203,7.289 8.434,7.289l9.907,0c2.476,0 4.83,-1.076 6.449,-2.95c1.619,-1.873 2.344,-4.358 1.985,-6.808c-2.335,-15.955 -6.713,-45.871 -6.713,-45.871c-1.357,-8.955 -7.598,-15.468 -16.01,-17.638c12.483,-1.9 15.196,-10.041 16.01,-23.066c0,-0 3.388,-49.973 4.81,-70.951c0.16,-2.356 -0.664,-4.672 -2.276,-6.397c-1.612,-1.725 -3.867,-2.704 -6.228,-2.704l-10.032,0c-4.491,0 -8.211,3.485 -8.505,7.966c-1.36,20.738 -4.905,74.799 -4.905,74.799c-0.271,3.8 -2.985,6.785 -6.784,6.785l-1.357,-0l0,-81.026c0,-2.261 -0.898,-4.429 -2.496,-6.027c-1.599,-1.599 -3.767,-2.497 -6.028,-2.497l-10.088,0c-4.708,0 -8.524,3.816 -8.524,8.524l0,159.337Z" style="fill:#6d00ff;fill-rule:nonzero;"/><path d="M1337.57,1476.58c-11.126,0 -19.809,7.87 -22.252,15.197c0,-0 -0.477,-2.862 -0.983,-5.903c-0.685,-4.11 -4.242,-7.123 -8.408,-7.123l-8.678,0c-4.708,0 -8.524,3.816 -8.524,8.524l-0,159.337c-0,4.708 3.816,8.524 8.524,8.524l10.088,0c2.261,0 4.429,-0.898 6.027,-2.496c1.599,-1.599 2.497,-3.767 2.497,-6.028l0,-139.368c0,-3.799 2.985,-6.784 6.784,-6.784c3.799,0 6.784,2.985 6.784,6.784l0,222.119c0,2.261 -0.898,4.429 -2.496,6.028c-1.599,1.598 -3.767,2.496 -6.028,2.496l-155.025,0c-4.708,0 -8.524,-3.816 -8.524,-8.524l0,-324.839c0,-2.261 0.898,-4.429 2.497,-6.027c1.598,-1.599 3.766,-2.497 6.027,-2.497l314.887,0c2.261,0 4.429,0.898 6.027,2.497c1.599,1.598 2.497,3.766 2.497,6.027l-0,324.839c-0,4.708 -3.816,8.524 -8.524,8.524l-27.727,0c-2.261,0 -4.429,0.898 -6.027,2.497c-1.599,1.598 -2.497,3.766 -2.497,6.027l0,10.103c0,2.26 0.898,4.429 2.497,6.027c1.598,1.599 3.766,2.497 6.027,2.497l54.087,-0c2.261,-0 4.429,-0.898 6.027,-2.497c1.599,-1.598 2.497,-3.767 2.497,-6.027l0,-379.14c0,-4.708 -3.816,-8.524 -8.524,-8.524l-367.607,-0c-4.708,-0 -8.524,3.816 -8.524,8.524l-0,379.14c0,2.26 0.898,4.429 2.497,6.027c1.598,1.599 3.766,2.497 6.027,2.497l208.521,-0c2.261,-0 4.429,-0.898 6.028,-2.497c1.598,-1.598 2.496,-3.767 2.496,-6.027l0,-260.938c0,-10.583 -5.97,-18.996 -18.995,-18.996Z" style="fill:#6d00ff;fill-rule:nonzero;"/><path d="M1398.63,1630.71c0,-0 -6.025,-112.472 -7.708,-143.895c-0.243,-4.524 -3.982,-8.068 -8.512,-8.068l-9.71,0c-2.397,0 -4.683,1.009 -6.298,2.78c-1.615,1.772 -2.41,4.141 -2.19,6.528c2.867,31.05 12.068,130.733 14.709,159.337c0.404,4.385 4.083,7.74 8.487,7.74l25.158,0c4.404,0 8.083,-3.355 8.488,-7.74c2.64,-28.604 11.842,-128.287 14.708,-159.337c0.22,-2.387 -0.575,-4.756 -2.19,-6.528c-1.615,-1.771 -3.901,-2.78 -6.298,-2.78l-9.71,0c-4.53,0 -8.269,3.544 -8.511,8.068c-1.684,31.423 -7.709,143.895 -7.709,143.895l-2.714,-0Z" style="fill:#6d00ff;fill-rule:nonzero;"/><path d="M1420.04,1746.31c0,-4.707 -3.816,-8.523 -8.524,-8.523l-23.054,-0c-4.708,-0 -8.524,3.816 -8.524,8.523l0,10.199c0,4.707 3.816,8.524 8.524,8.524l23.054,-0c4.708,-0 8.524,-3.817 8.524,-8.524l0,-10.199Z" style="fill:#6d00ff;"/></g></g></g><g id="TOP-BAR1" serif:id="TOP BAR"><g id="LOGOS2" serif:id="LOGOS"><g id="LOGO-22" serif:id="LOGO 2"><path d="M35.762,1157.95c0,1.031 0.836,1.867 1.867,1.867l2.21,0c0.495,0 0.97,-0.197 1.32,-0.547c0.35,-0.35 0.547,-0.825 0.547,-1.32l-0,-11.803l0.297,0c0.832,0 1.367,0.654 1.486,1.486c-0,0 1.066,7.283 1.549,10.588c0.134,0.916 0.921,1.596 1.847,1.596l2.17,0c0.543,0 1.058,-0.236 1.413,-0.646c0.354,-0.41 0.513,-0.954 0.434,-1.491c-0.511,-3.495 -1.47,-10.047 -1.47,-10.047c-0.297,-1.961 -1.664,-3.388 -3.506,-3.863c2.734,-0.416 3.328,-2.199 3.506,-5.052c0,-0 0.742,-10.945 1.054,-15.54c0.035,-0.516 -0.146,-1.023 -0.499,-1.401c-0.353,-0.378 -0.847,-0.592 -1.364,-0.592l-2.197,-0c-0.984,-0 -1.799,0.763 -1.863,1.745c-0.298,4.542 -1.074,16.382 -1.074,16.382c-0.06,0.832 -0.654,1.486 -1.486,1.486l-0.297,0l-0,-17.746c-0,-0.495 -0.197,-0.97 -0.547,-1.32c-0.35,-0.35 -0.825,-0.547 -1.32,-0.547l-2.21,-0c-1.031,-0 -1.867,0.836 -1.867,1.867l0,34.898Z" style="fill:#6d00ff;fill-rule:nonzero;"/><path d="M63.696,1120.71c-2.436,0 -4.338,1.724 -4.873,3.329c-0,-0 -0.105,-0.627 -0.216,-1.293c-0.15,-0.9 -0.929,-1.56 -1.841,-1.56l-1.901,-0c-1.031,-0 -1.867,0.836 -1.867,1.867l0,34.898c0,1.031 0.836,1.867 1.867,1.867l2.21,0c0.495,0 0.97,-0.197 1.32,-0.547c0.35,-0.35 0.547,-0.825 0.547,-1.32l-0,-30.525c-0,-0.832 0.653,-1.485 1.486,-1.485c0.832,-0 1.485,0.653 1.485,1.485l0,48.65c0,0.495 -0.196,0.97 -0.546,1.32c-0.351,0.35 -0.825,0.546 -1.321,0.546l-33.954,0c-1.031,0 -1.866,-0.835 -1.866,-1.866l-0,-71.148c-0,-0.495 0.196,-0.97 0.546,-1.32c0.35,-0.35 0.825,-0.546 1.32,-0.546l68.968,-0c0.495,-0 0.97,0.196 1.32,0.546c0.35,0.35 0.547,0.825 0.547,1.32l-0,71.148c-0,1.031 -0.836,1.866 -1.867,1.866l-6.073,0c-0.495,0 -0.97,0.197 -1.32,0.547c-0.35,0.35 -0.547,0.825 -0.547,1.32l0,2.213c0,0.495 0.197,0.97 0.547,1.32c0.35,0.35 0.825,0.547 1.32,0.547l11.846,0c0.495,0 0.97,-0.197 1.32,-0.547c0.351,-0.35 0.547,-0.825 0.547,-1.32l0,-83.04c0,-1.031 -0.836,-1.867 -1.867,-1.867l-80.514,-0c-1.031,-0 -1.867,0.836 -1.867,1.867l0,83.04c0,0.495 0.197,0.97 0.547,1.32c0.35,0.35 0.825,0.547 1.32,0.547l45.671,0c0.495,0 0.97,-0.197 1.32,-0.547c0.35,-0.35 0.547,-0.825 0.547,-1.32l-0,-57.151c-0,-2.318 -1.308,-4.161 -4.161,-4.161Z" style="fill:#6d00ff;fill-rule:nonzero;"/><path d="M77.069,1154.47c0,0 -1.32,-24.634 -1.688,-31.516c-0.053,-0.991 -0.872,-1.767 -1.864,-1.767l-2.127,-0c-0.525,-0 -1.026,0.221 -1.38,0.609c-0.353,0.388 -0.527,0.907 -0.479,1.429c0.628,6.801 2.643,28.634 3.221,34.899c0.089,0.96 0.895,1.695 1.859,1.695l5.51,0c0.965,0 1.771,-0.735 1.859,-1.695c0.579,-6.265 2.594,-28.098 3.222,-34.899c0.048,-0.522 -0.126,-1.041 -0.48,-1.429c-0.354,-0.388 -0.854,-0.609 -1.379,-0.609l-2.127,-0c-0.992,-0 -1.811,0.776 -1.864,1.767c-0.369,6.882 -1.688,31.516 -1.688,31.516l-0.595,0Z" style="fill:#6d00ff;fill-rule:nonzero;"/><path d="M81.758,1179.79c-0,-1.031 -0.836,-1.866 -1.867,-1.866l-5.049,-0c-1.031,-0 -1.867,0.835 -1.867,1.866l-0,2.234c-0,1.031 0.836,1.867 1.867,1.867l5.049,0c1.031,0 1.867,-0.836 1.867,-1.867l-0,-2.234Z" style="fill:#6d00ff;"/></g></g><g id="ACTIONS1" serif:id="ACTIONS"><text x="568.093px" y="1151px" style="font-family:'AvocadoSansFont-Regular', 'Avocado Sans Font';font-size:29.989px;fill:#6d00ff;">H<tspan x="585.726px 607.708px 632.748px " y="1151px 1151px 1151px ">OME</tspan></text><text x="742.096px" y="1151px" style="font-family:'AvocadoSansFont-Regular', 'Avocado Sans Font';font-size:29.989px;fill:#6d00ff;">ABOU<tspan x="816.228px " y="1151px ">T</tspan></text><text x="929.561px" y="1151px" style="font-family:'AvocadoSansFont-Regular', 'Avocado Sans Font';font-size:29.989px;fill:#6d00ff;">H<tspan x="947.195px 968.127px " y="1151px 1151px ">OW</tspan> IT W<tspan x="1064.12px " y="1151px ">O</tspan>RK<tspan x="1121.85px " y="1151px ">S</tspan></text><text x="1233.74px" y="1151px" style="font-family:'AvocadoSansFont-Regular', 'Avocado Sans Font';font-size:29.989px;fill:#6d00ff;">C<tspan x="1249.97px 1272.1px 1292.46px 1305.6px 1321.73px " y="1151px 1151px 1151px 1151px 1151px ">ONTAC</tspan>T</text></g></g><rect id="AB-3" serif:id="AB 3" x="3.174" y="2343" width="1920" height="1329" style="fill:none;"/><rect id="BG5" serif:id="BG" x="3.174" y="2343" width="1920" height="1329"/><clipPath id="_clip3"><rect id="BG6" serif:id="BG" x="3.174" y="2343" width="1920" height="1329"/></clipPath><g clip-path="url(#_clip3)"><rect x="3.174" y="2343" width="1920" height="1329" style="fill:url(#_Linear4);"/></g><g id="MIDDLE"><g id="TEXT1" serif:id="TEXT"><g transform="matrix(0.996957,2.44184e-16,-2.44184e-16,0.996957,-372.709,-54.7333)"><text x="784.662px" y="2997.99px" style="font-family:'AvocadoSansThin-Regular', 'Avocado Sans Thin';font-size:29.368px;fill:#fff;">Ou<tspan x="819.229px " y="2997.99px ">r</tspan> s<tspan x="844.397px 859.786px 867.686px 879.815px 883.809px 895.116px " y="2997.99px 2997.99px 2997.99px 2997.99px 2997.99px 2997.99px ">ervice</tspan> us<tspan x="939.139px 953.852px " y="2997.99px 2997.99px ">es</tspan> v<tspan x="982.897px 999.02px 1006.92px " y="2997.99px 2997.99px 2997.99px ">ari</tspan>ous s<tspan x="1064.63px " y="2997.99px ">o</tspan>ci<tspan x="1095.7px 1111.97px " y="2997.99px 2997.99px ">al</tspan> me<tspan x="1158.25px 1174.14px 1177.99px " y="2997.99px 2997.99px 2997.99px ">dia</tspan> p<tspan x="1216.9px 1220.46px " y="2997.99px 2997.99px ">la</tspan>tf<tspan x="1253.76px 1269.24px " y="2997.99px 2997.99px ">or</tspan>ms t<tspan x="1324.12px " y="2997.99px ">o</tspan> at<tspan x="1371.58px 1381.86px 1388.29px " y="2997.99px 2997.99px 2997.99px ">tra</tspan>ct mo<tspan x="1469.23px 1475.96px " y="2997.99px 2997.99px ">re</tspan> cus<tspan x="1531.52px 1540.63px " y="2997.99px 2997.99px ">to</tspan>mer<tspan x="1598.75px " y="2997.99px ">s</tspan></text><g transform="matrix(29.3681,0,0,29.3681,909.917,3027.36)"><path d="M0.298,-0.69c0.005,0.001 0.009,0.003 0.012,0.007c0.003,0.003 0.005,0.007 0.005,0.012l0,0.02c0,0.005 -0.002,0.009 -0.006,0.013c-0.003,0.003 -0.007,0.005 -0.013,0.005c-0.044,0 -0.079,0.012 -0.104,0.036c-0.026,0.025 -0.039,0.06 -0.039,0.106l0,0.076l0.095,-0c0.005,-0 0.01,0.002 0.014,0.005c0.003,0.004 0.005,0.009 0.005,0.014l0,0.019c0,0.005 -0.002,0.009 -0.005,0.012c-0.004,0.004 -0.009,0.006 -0.014,0.006l-0.095,-0l0,0.339c0,0.005 -0.002,0.01 -0.005,0.013c-0.004,0.004 -0.009,0.006 -0.014,0.006l-0.019,-0c-0.005,-0 -0.01,-0.002 -0.013,-0.006c-0.004,-0.003 -0.006,-0.008 -0.006,-0.013l0,-0.339l-0.047,-0c-0.005,-0 -0.01,-0.002 -0.013,-0.006c-0.004,-0.003 -0.006,-0.007 -0.006,-0.012l0,-0.019c0,-0.005 0.002,-0.01 0.006,-0.014c0.003,-0.003 0.008,-0.005 0.013,-0.005l0.047,-0l0,-0.076c0,-0.04 0.009,-0.076 0.026,-0.107c0.017,-0.03 0.041,-0.054 0.072,-0.071c0.031,-0.017 0.065,-0.024 0.104,-0.021Zm0.034,0.247c0,-0.005 0.002,-0.01 0.006,-0.013c0.003,-0.003 0.008,-0.005 0.013,-0.005l0.019,0c0.005,0 0.01,0.002 0.013,0.005c0.003,0.003 0.005,0.008 0.005,0.013l0,0.424c0,0.005 -0.002,0.01 -0.005,0.014c-0.003,0.003 -0.008,0.005 -0.013,0.005l-0.019,0c-0.005,0 -0.01,-0.002 -0.013,-0.005c-0.004,-0.004 -0.006,-0.009 -0.006,-0.014l0,-0.424Z" style="fill:#fff;fill-rule:nonzero;"/></g><text x="784.662px" y="3027.36px" style="font-family:'AvocadoSansThin-Regular', 'Avocado Sans Thin';font-size:29.368px;fill:#fff;">t<tspan x="793.766px " y="3027.36px ">o</tspan> you<tspan x="856.585px " y="3027.36px ">r</tspan> p<tspan x="888.155px 894.587px 922.487px 926.334px " y="3027.36px 3027.36px 3027.36px 3027.36px ">role</tspan>, p<tspan x="969.094px 975.526px 990.562px " y="3027.36px 3027.36px 3027.36px ">rod</tspan>uct o<tspan x="1063.04px " y="3027.36px ">r</tspan> b<tspan x="1094.17px 1105.92px 1115.35px 1119.93px 1132.85px 1147.56px 1156.7px " y="3027.36px 3027.36px 3027.36px 3027.36px 3027.36px 3027.36px 3027.36px ">usiness</tspan>.</text></g><text x="409.565px" y="2876.44px" style="font-family:'AvocadoSansThin-Regular', 'Avocado Sans Thin';font-size:29.279px;fill:#fff;">W<tspan x="435.975px " y="2876.44px ">e</tspan> de<tspan x="489.789px 493.917px 497.899px 509.259px " y="2876.44px 2876.44px 2876.44px 2876.44px ">live</tspan>r cr<tspan x="559.238px 573.907px 589.249px 598.911px 602.893px 614.253px " y="2876.44px 2876.44px 2876.44px 2876.44px 2876.44px 2876.44px ">eative</tspan> c<tspan x="648.392px 663.676px 675.68px 684.756px 700.01px 712.015px " y="2876.44px 2876.44px 2876.44px 2876.44px 2876.44px 2876.44px ">ontent</tspan> th<tspan x="752.859px " y="2876.44px ">a</tspan>t r<tspan x="792.912px 807.581px 816.686px " y="2876.44px 2876.44px 2876.44px ">eso</tspan>nat<tspan x="869.271px 883.94px " y="2876.44px 2876.44px ">es</tspan> wi<tspan x="925.281px " y="2876.44px ">t</tspan>h you<tspan x="995.609px " y="2876.44px ">r</tspan> cus<tspan x="1043.92px 1053px " y="2876.44px 2876.44px ">to</tspan>mer<tspan x="1110.94px " y="2876.44px ">s</tspan>.</text><g><text x="947.037px" y="2824.91px" style="font-family:'Monologue-Regular', 'Monologue';font-size:91.66px;fill:#fff;">Y<tspan x="974.627px " y="2824.91px ">O</tspan>U CREA<tspan x="1176.19px " y="2824.91px ">T</tspan>E REVENUE.</text><text id="_-We-create-a-design.-" serif:id="(We create a design.)" x="408.808px" y="2824.91px" style="font-family:'Monologue-Regular', 'Monologue';font-size:91.66px;fill:#fff;">WE CREA<tspan x="623.567px " y="2824.91px ">T</tspan>E A DE<tspan x="800.928px " y="2824.91px ">S</tspan>IGN.</text></g><g><text x="941.916px" y="2719.63px" style="font-family:'Monologue-Regular', 'Monologue';font-size:91.66px;fill:#fff;">WE CREA<tspan x="1156.67px " y="2719.63px ">T</tspan>E A STRA<tspan x="1392.88px 1419.65px 1446.78px 1478.95px 1503.42px " y="2719.63px 2719.63px 2719.63px 2719.63px 2719.63px ">TEGY.</tspan></text><text x="410.195px" y="2719.47px" style="font-family:'Monologue-Regular', 'Monologue';font-size:91.66px;fill:#fff;">Y<tspan x="437.785px " y="2719.47px ">O</tspan>U GIVE US AN IDEA.</text></g></g><g id="BUTTONS"><g id="BUTTON-1" serif:id="BUTTON 1"><path d="M677.519,3050.99c-0,-4.706 -3.815,-8.521 -8.522,-8.521c-40.119,-0 -209.913,-0 -250.032,-0c-4.706,-0 -8.521,3.815 -8.521,8.521c-0,45.995 -0,264.265 -0,310.261c-0,4.706 3.815,8.521 8.521,8.521c40.119,0 209.913,0 250.032,0c4.707,0 8.522,-3.815 8.522,-8.521c-0,-45.996 -0,-264.266 -0,-310.261Z" style="fill:#6d00ff;"/><path id="LINE" d="M647,3117.97c0,-0.847 -0.337,-1.659 -0.935,-2.258c-0.599,-0.599 -1.412,-0.936 -2.259,-0.936c-23.99,0 -175.66,0 -199.65,0c-0.847,0 -1.659,0.337 -2.258,0.936c-0.599,0.599 -0.936,1.411 -0.936,2.258c0,0.001 0,0.002 0,0.003c0,0.847 0.337,1.659 0.936,2.258c0.599,0.599 1.411,0.936 2.258,0.936c23.99,-0 175.66,-0 199.65,-0c0.847,-0 1.66,-0.337 2.259,-0.936c0.598,-0.599 0.935,-1.411 0.935,-2.258c0,-0.001 0,-0.002 0,-0.003Z" style="fill:#fff;"/><g transform="matrix(1,0,0,1,2.66596e-11,16.776)"><text x="440.962px" y="3149.97px" style="font-family:'AvocadoSansBold-Regular', 'Avocado Sans Bold';font-size:33.333px;fill:#fff;">- ADS</text><text x="440.962px" y="3229.14px" style="font-family:'AvocadoSansBold-Regular', 'Avocado Sans Bold';font-size:33.333px;fill:#fff;">- P<tspan x="483.229px 506.762px 524.796px 540.529px " y="3229.14px 3229.14px 3229.14px 3229.14px ">OSTS</tspan></text><text x="440.962px" y="3308.3px" style="font-family:'AvocadoSansBold-Regular', 'Avocado Sans Bold';font-size:33.333px;fill:#fff;">- S<tspan x="482.829px " y="3308.3px ">H</tspan>ARE<tspan x="558.062px " y="3308.3px ">S</tspan></text></g><text x="466.932px" y="3092.21px" style="font-family:'AvocadoSansBold-Regular', 'Avocado Sans Bold';font-size:32.319px;fill:#fff;">F<tspan x="479.504px 497.894px 518.675px 533.671px " y="3092.21px 3092.21px 3092.21px 3092.21px ">ACEB</tspan>OOK</text></g><g id="BUTTON-11" serif:id="BUTTON 1"><path d="M956.98,3050.99c0,-4.706 -3.815,-8.521 -8.521,-8.521c-40.119,-0 -209.913,-0 -250.033,-0c-4.706,-0 -8.521,3.815 -8.521,8.521c0,45.995 0,264.265 0,310.261c0,4.706 3.815,8.521 8.521,8.521c40.12,0 209.914,0 250.033,0c4.706,0 8.521,-3.815 8.521,-8.521c0,-45.996 0,-264.266 0,-310.261Z" style="fill:#fff;"/><path id="LINE1" serif:id="LINE" d="M926.462,3117.97c-0,-0.847 -0.337,-1.659 -0.936,-2.258c-0.599,-0.599 -1.411,-0.936 -2.258,-0.936c-23.99,0 -175.66,0 -199.65,0c-0.847,0 -1.66,0.337 -2.259,0.936c-0.599,0.599 -0.935,1.411 -0.935,2.258c-0,0.001 -0,0.002 -0,0.003c-0,0.847 0.336,1.659 0.935,2.258c0.599,0.599 1.412,0.936 2.259,0.936c23.99,-0 175.66,-0 199.65,-0c0.847,-0 1.659,-0.337 2.258,-0.936c0.599,-0.599 0.936,-1.411 0.936,-2.258c-0,-0.001 -0,-0.002 -0,-0.003Z" style="fill:#6d00ff;"/><g transform="matrix(1,0,0,1,279.462,16.776)"><text x="440.962px" y="3149.97px" style="font-family:'AvocadoSansBold-Regular', 'Avocado Sans Bold';font-size:33.333px;fill:#6d00ff;">- ADS</text><text x="440.962px" y="3229.14px" style="font-family:'AvocadoSansBold-Regular', 'Avocado Sans Bold';font-size:33.333px;fill:#6d00ff;">- P<tspan x="483.229px 506.762px 524.796px 540.529px " y="3229.14px 3229.14px 3229.14px 3229.14px ">OSTS</tspan></text><text x="440.962px" y="3308.3px" style="font-family:'AvocadoSansBold-Regular', 'Avocado Sans Bold';font-size:33.333px;fill:#6d00ff;">- S<tspan x="482.829px " y="3308.3px ">H</tspan>ARE<tspan x="558.062px " y="3308.3px ">S</tspan></text></g><text x="738.75px" y="3092.21px" style="font-family:'AvocadoSansBold-Regular', 'Avocado Sans Bold';font-size:32.319px;fill:#6d00ff;">I<tspan x="745.343px 767.579px 785.064px 799.672px 818.546px 841.913px 860.077px " y="3092.21px 3092.21px 3092.21px 3092.21px 3092.21px 3092.21px 3092.21px ">NSTAGRA</tspan>M</text></g><g id="BUTTON-12" serif:id="BUTTON 1"><path d="M1236.44,3050.99c-0,-4.706 -3.815,-8.521 -8.521,-8.521c-40.12,-0 -209.913,-0 -250.033,-0c-4.706,-0 -8.521,3.815 -8.521,8.521c0,45.995 0,264.265 0,310.261c0,4.706 3.815,8.521 8.521,8.521c40.12,0 209.913,0 250.033,0c4.706,0 8.521,-3.815 8.521,-8.521c-0,-45.996 -0,-264.266 -0,-310.261Z" style="fill:#fff;"/><path id="LINE2" serif:id="LINE" d="M1205.92,3117.97c0,-0.847 -0.336,-1.659 -0.935,-2.258c-0.599,-0.599 -1.411,-0.936 -2.259,-0.936c-23.989,0 -175.66,0 -199.649,0c-0.847,0 -1.66,0.337 -2.259,0.936c-0.599,0.599 -0.935,1.411 -0.935,2.258c-0,0.001 -0,0.002 -0,0.003c-0,0.847 0.336,1.659 0.935,2.258c0.599,0.599 1.412,0.936 2.259,0.936c23.989,-0 175.66,-0 199.649,-0c0.848,-0 1.66,-0.337 2.259,-0.936c0.599,-0.599 0.935,-1.411 0.935,-2.258c0,-0.001 0,-0.002 0,-0.003Z" style="fill:#6d00ff;"/><g transform="matrix(1,0,0,1,558.923,16.776)"><text x="440.962px" y="3149.97px" style="font-family:'AvocadoSansBold-Regular', 'Avocado Sans Bold';font-size:33.333px;fill:#6d00ff;">- ADS</text><text x="440.962px" y="3229.14px" style="font-family:'AvocadoSansBold-Regular', 'Avocado Sans Bold';font-size:33.333px;fill:#6d00ff;">- P<tspan x="483.229px 506.762px 524.796px 540.529px " y="3229.14px 3229.14px 3229.14px 3229.14px ">OSTS</tspan></text><text x="440.962px" y="3308.3px" style="font-family:'AvocadoSansBold-Regular', 'Avocado Sans Bold';font-size:33.333px;fill:#6d00ff;">- S<tspan x="482.829px " y="3308.3px ">H</tspan>ARE<tspan x="558.062px " y="3308.3px ">S</tspan></text></g><text x="1040px" y="3092.21px" style="font-family:'AvocadoSansBold-Regular', 'Avocado Sans Bold';font-size:32.319px;fill:#6d00ff;">GOOG<tspan x="1135.92px " y="3092.21px ">L</tspan>E</text></g><g id="BUTTON-13" serif:id="BUTTON 1"><path d="M1515.9,3050.02c-0,-4.706 -3.815,-8.521 -8.521,-8.521c-40.12,0 -209.913,0 -250.033,0c-4.706,0 -8.521,3.815 -8.521,8.521c-0,45.996 -0,264.266 -0,310.262c-0,4.706 3.815,8.521 8.521,8.521c40.12,-0 209.913,-0 250.033,-0c4.706,-0 8.521,-3.815 8.521,-8.521c-0,-45.996 -0,-264.266 -0,-310.262Z" style="fill:#fff;"/><path id="LINE3" serif:id="LINE" d="M1485.38,3116.99c0,-0.847 -0.336,-1.66 -0.935,-2.259c-0.599,-0.599 -1.412,-0.935 -2.259,-0.935c-23.989,-0 -175.66,-0 -199.65,-0c-0.847,-0 -1.659,0.336 -2.258,0.935c-0.599,0.599 -0.936,1.412 -0.936,2.259c0,0.001 0,0.002 0,0.003c0,0.847 0.337,1.659 0.936,2.258c0.599,0.599 1.411,0.936 2.258,0.936c23.99,-0 175.661,-0 199.65,-0c0.847,-0 1.66,-0.337 2.259,-0.936c0.599,-0.599 0.935,-1.411 0.935,-2.258c0,-0.001 0,-0.002 0,-0.003Z" style="fill:#6d00ff;"/><g transform="matrix(1,0,0,1,838.385,15.7998)"><text x="440.962px" y="3149.97px" style="font-family:'AvocadoSansBold-Regular', 'Avocado Sans Bold';font-size:33.333px;fill:#6d00ff;">- ADS</text><text x="440.962px" y="3229.14px" style="font-family:'AvocadoSansBold-Regular', 'Avocado Sans Bold';font-size:33.333px;fill:#6d00ff;">- P<tspan x="483.229px 506.762px 524.796px 540.529px " y="3229.14px 3229.14px 3229.14px 3229.14px ">OSTS</tspan></text><text x="440.962px" y="3308.3px" style="font-family:'AvocadoSansBold-Regular', 'Avocado Sans Bold';font-size:33.333px;fill:#6d00ff;">- S<tspan x="482.829px " y="3308.3px ">H</tspan>ARE<tspan x="558.062px " y="3308.3px ">S</tspan></text></g><text x="1329.27px" y="3091.23px" style="font-family:'AvocadoSansBold-Regular', 'Avocado Sans Bold';font-size:32.319px;fill:#6d00ff;">T<tspan x="1347.91px " y="3091.23px ">I</tspan>KT<tspan x="1390.32px " y="3091.23px ">O</tspan>K</text></g></g></g><g id="TOP"><g id="TOP-BAR2" serif:id="TOP BAR"><g id="LOGOS3" serif:id="LOGOS"><g id="LOGO-23" serif:id="LOGO 2"><path d="M36.497,2420.95c-0,1.031 0.836,1.867 1.867,1.867l2.209,0c0.496,0 0.97,-0.197 1.321,-0.547c0.35,-0.35 0.546,-0.825 0.546,-1.32l0,-11.803l0.297,0c0.833,0 1.367,0.654 1.486,1.486c0,0 1.066,7.283 1.55,10.588c0.134,0.916 0.92,1.596 1.847,1.596l2.17,0c0.542,0 1.058,-0.236 1.412,-0.646c0.355,-0.41 0.514,-0.954 0.435,-1.491c-0.511,-3.495 -1.47,-10.047 -1.47,-10.047c-0.297,-1.961 -1.664,-3.388 -3.507,-3.863c2.734,-0.416 3.328,-2.199 3.507,-5.052c-0,-0 0.742,-10.945 1.053,-15.54c0.035,-0.516 -0.145,-1.023 -0.498,-1.401c-0.353,-0.378 -0.847,-0.592 -1.364,-0.592l-2.197,-0c-0.984,-0 -1.799,0.763 -1.863,1.745c-0.298,4.542 -1.075,16.382 -1.075,16.382c-0.059,0.832 -0.653,1.486 -1.486,1.486l-0.297,0l0,-17.746c0,-0.495 -0.196,-0.97 -0.546,-1.32c-0.351,-0.35 -0.825,-0.547 -1.321,-0.547l-2.209,-0c-1.031,-0 -1.867,0.836 -1.867,1.867l-0,34.898Z" style="fill:#fff;fill-rule:nonzero;"/><path d="M64.431,2383.71c-2.437,0 -4.339,1.724 -4.874,3.329c0,-0 -0.104,-0.627 -0.215,-1.293c-0.15,-0.9 -0.929,-1.56 -1.842,-1.56l-1.9,-0c-1.031,-0 -1.867,0.836 -1.867,1.867l-0,34.898c-0,1.031 0.836,1.867 1.867,1.867l2.209,0c0.495,0 0.97,-0.197 1.32,-0.547c0.351,-0.35 0.547,-0.825 0.547,-1.32l0,-30.525c0,-0.832 0.654,-1.485 1.486,-1.485c0.832,-0 1.486,0.653 1.486,1.485l-0,48.65c-0,0.495 -0.197,0.97 -0.547,1.32c-0.35,0.35 -0.825,0.546 -1.32,0.546l-33.954,0c-1.031,0 -1.867,-0.835 -1.867,-1.866l0,-71.148c0,-0.495 0.197,-0.97 0.547,-1.32c0.35,-0.35 0.825,-0.546 1.32,-0.546l68.967,-0c0.496,-0 0.97,0.196 1.321,0.546c0.35,0.35 0.546,0.825 0.546,1.32l0,71.148c0,1.031 -0.836,1.866 -1.867,1.866l-6.072,0c-0.496,0 -0.97,0.197 -1.321,0.547c-0.35,0.35 -0.546,0.825 -0.546,1.32l-0,2.213c-0,0.495 0.196,0.97 0.546,1.32c0.351,0.35 0.825,0.547 1.321,0.547l11.846,0c0.495,0 0.97,-0.197 1.32,-0.547c0.35,-0.35 0.547,-0.825 0.547,-1.32l-0,-83.04c-0,-1.031 -0.836,-1.867 -1.867,-1.867l-80.514,-0c-1.032,-0 -1.867,0.836 -1.867,1.867l-0,83.04c-0,0.495 0.196,0.97 0.546,1.32c0.351,0.35 0.825,0.547 1.321,0.547l45.671,0c0.495,0 0.969,-0.197 1.32,-0.547c0.35,-0.35 0.546,-0.825 0.546,-1.32l0,-57.151c0,-2.318 -1.307,-4.161 -4.16,-4.161Z" style="fill:#fff;fill-rule:nonzero;"/><path d="M77.804,2417.47c-0,0 -1.32,-24.634 -1.689,-31.516c-0.053,-0.991 -0.872,-1.767 -1.864,-1.767l-2.127,-0c-0.525,-0 -1.025,0.221 -1.379,0.609c-0.354,0.388 -0.528,0.907 -0.48,1.429c0.628,6.801 2.644,28.634 3.222,34.899c0.089,0.96 0.894,1.695 1.859,1.695l5.51,0c0.965,0 1.77,-0.735 1.859,-1.695c0.578,-6.265 2.594,-28.098 3.221,-34.899c0.049,-0.522 -0.125,-1.041 -0.479,-1.429c-0.354,-0.388 -0.855,-0.609 -1.38,-0.609l-2.126,-0c-0.993,-0 -1.811,0.776 -1.865,1.767c-0.368,6.882 -1.688,31.516 -1.688,31.516l-0.594,0Z" style="fill:#fff;fill-rule:nonzero;"/><path d="M82.493,2442.79c-0,-1.031 -0.836,-1.866 -1.867,-1.866l-5.05,-0c-1.031,-0 -1.867,0.835 -1.867,1.866l0,2.234c0,1.031 0.836,1.867 1.867,1.867l5.05,0c1.031,0 1.867,-0.836 1.867,-1.867l-0,-2.234Z" style="fill:#fff;"/></g></g><g id="ACTIONS2" serif:id="ACTIONS"><text x="568.827px" y="2414px" style="font-family:'AvocadoSansFont-Regular', 'Avocado Sans Font';font-size:29.989px;fill:#fff;">H<tspan x="586.461px 608.442px 633.483px " y="2414px 2414px 2414px ">OME</tspan></text><text x="742.831px" y="2414px" style="font-family:'AvocadoSansFont-Regular', 'Avocado Sans Font';font-size:29.989px;fill:#fff;">ABOU<tspan x="816.963px " y="2414px ">T</tspan></text><text x="930.296px" y="2414px" style="font-family:'AvocadoSansFont-Regular', 'Avocado Sans Font';font-size:29.989px;fill:#fff;">H<tspan x="947.929px 968.861px " y="2414px 2414px ">OW</tspan> IT W<tspan x="1064.86px " y="2414px ">O</tspan>RK<tspan x="1122.58px " y="2414px ">S</tspan></text><text x="1234.48px" y="2414px" style="font-family:'AvocadoSansFont-Regular', 'Avocado Sans Font';font-size:29.989px;fill:#fff;">C<tspan x="1250.7px 1272.83px 1293.19px 1306.33px 1322.46px " y="2414px 2414px 2414px 2414px 2414px ">ONTAC</tspan>T</text></g></g></g><rect id="AB-4" serif:id="AB 4" x="3.174" y="3672" width="1920" height="1080" style="fill:none;"/><rect id="BG7" serif:id="BG" x="3.174" y="3672" width="1920" height="1080" style="fill:#6d00ff;"/><g id="BG8" serif:id="BG"><rect x="3.174" y="3672" width="1920" height="1080" style="fill:url(#_Linear5);"/></g><g><g id="INFO"><path id="SEND" d="M1075.45,4353.58c0,-4.706 -3.815,-8.521 -8.521,-8.521c-20.871,-0 -74.364,-0 -95.235,-0c-4.706,-0 -8.521,3.815 -8.521,8.521c-0,10.663 -0,28.815 -0,39.478c-0,4.706 3.815,8.521 8.521,8.521c20.871,0 74.364,0 95.235,0c4.706,0 8.521,-3.815 8.521,-8.521c0,-10.663 0,-28.815 0,-39.478Z" style="fill:#fff;"/><clipPath id="_clip6"><path d="M1075.45,4353.58c0,-4.706 -3.815,-8.521 -8.521,-8.521c-20.871,-0 -74.364,-0 -95.235,-0c-4.706,-0 -8.521,3.815 -8.521,8.521c-0,10.663 -0,28.815 -0,39.478c-0,4.706 3.815,8.521 8.521,8.521c20.871,0 74.364,0 95.235,0c4.706,0 8.521,-3.815 8.521,-8.521c0,-10.663 0,-28.815 0,-39.478Z"/></clipPath><g clip-path="url(#_clip6)"><text x="992.613px" y="4382.02px" style="font-family:'AvocadoSansThin-Regular', 'Avocado Sans Thin';font-size:25px;fill:#6d00ff;">S<tspan x="1005.21px 1015.04px 1030.04px " y="4382.02px 4382.02px 4382.02px ">END</tspan></text></g><g id="CONTACT-BOX" serif:id="CONTACT BOX"><g><path id="LINE4" serif:id="LINE" d="M1515.89,4301.86c0,-0.847 -0.336,-1.66 -0.935,-2.259c-0.599,-0.599 -1.411,-0.935 -2.259,-0.935c-42.865,-0 -503.463,-0 -546.328,-0c-0.847,-0 -1.66,0.336 -2.259,0.935c-0.599,0.599 -0.935,1.412 -0.935,2.259c-0,0.001 -0,0.002 -0,0.003c-0,0.847 0.336,1.659 0.935,2.258c0.599,0.599 1.412,0.936 2.259,0.936l546.328,-0c0.848,-0 1.66,-0.337 2.259,-0.936c0.599,-0.599 0.935,-1.411 0.935,-2.258c0,-0.001 0,-0.002 0,-0.003Z" style="fill:#fff;"/><text x="974.701px" y="4279px" style="font-family:'AvocadoSansThin-Regular', 'Avocado Sans Thin';font-size:25px;fill:#fff;">M<tspan x="995.401px 1005.23px 1017.08px 1028.8px 1041.98px 1060px " y="4279px 4279px 4279px 4279px 4279px 4279px ">ESSAGE</tspan></text></g><g><path id="LINE5" serif:id="LINE" d="M1515.89,4222.25c0,-0.847 -0.336,-1.66 -0.935,-2.259c-0.599,-0.599 -1.411,-0.935 -2.259,-0.935l-546.328,-0c-0.847,-0 -1.66,0.336 -2.259,0.935c-0.599,0.599 -0.935,1.412 -0.935,2.259l-0,0.003c-0,0.847 0.336,1.659 0.935,2.258c0.599,0.599 1.412,0.936 2.259,0.936l546.328,-0c0.848,-0 1.66,-0.337 2.259,-0.936c0.599,-0.599 0.935,-1.411 0.935,-2.258c0,-0.001 0,-0.002 0,-0.003Z" style="fill:#fff;"/><text x="974.701px" y="4199.39px" style="font-family:'AvocadoSansThin-Regular', 'Avocado Sans Thin';font-size:25px;fill:#fff;">S<tspan x="986.801px 1001.3px 1014.25px 1028.48px 1038.3px " y="4199.39px 4199.39px 4199.39px 4199.39px 4199.39px ">UBJEC</tspan>T</text></g><g><path id="LINE6" serif:id="LINE" d="M1515.89,4142.64c0,-0.848 -0.336,-1.66 -0.935,-2.259c-0.599,-0.599 -1.411,-0.935 -2.259,-0.935l-546.328,-0c-0.847,-0 -1.66,0.336 -2.259,0.935c-0.599,0.599 -0.935,1.411 -0.935,2.259l-0,0.002c-0,0.847 0.336,1.66 0.935,2.259c0.599,0.599 1.412,0.935 2.259,0.935l546.328,0c0.848,0 1.66,-0.336 2.259,-0.935c0.599,-0.599 0.935,-1.412 0.935,-2.259c0,-0.001 0,-0.002 0,-0.002Z" style="fill:#fff;"/><text x="974.701px" y="4119.78px" style="font-family:'AvocadoSansThin-Regular', 'Avocado Sans Thin';font-size:25px;fill:#fff;">Y<tspan x="987.251px 1005.95px 1021.2px 1035.53px 1042.18px 1052.25px 1072.45px 1086.63px 1090.2px " y="4119.78px 4119.78px 4119.78px 4119.78px 4119.78px 4119.78px 4119.78px 4119.78px 4119.78px ">OUR EMAIL</tspan></text></g><g><path id="LINE7" serif:id="LINE" d="M1515.89,4063.03c0,-0.847 -0.336,-1.659 -0.935,-2.258c-0.599,-0.599 -1.411,-0.936 -2.259,-0.936c-42.865,0 -503.463,0 -546.328,0c-0.847,0 -1.66,0.337 -2.259,0.936c-0.599,0.599 -0.935,1.411 -0.935,2.258c-0,0.001 -0,0.002 -0,0.003c-0,0.847 0.336,1.66 0.935,2.259c0.599,0.599 1.412,0.935 2.259,0.935c42.865,0 503.463,0 546.328,0c0.848,0 1.66,-0.336 2.259,-0.935c0.599,-0.599 0.935,-1.412 0.935,-2.259c0,-0.001 0,-0.002 0,-0.003Z" style="fill:#fff;"/><text x="974.701px" y="4040.17px" style="font-family:'AvocadoSansThin-Regular', 'Avocado Sans Thin';font-size:25px;fill:#fff;">Y<tspan x="987.251px 1005.95px 1021.2px 1035.53px 1042.18px " y="4040.17px 4040.17px 4040.17px 4040.17px 4040.17px ">OUR N</tspan>AM<tspan x="1091.93px " y="4040.17px ">E</tspan></text></g></g></g><g id="Left-Text" serif:id="Left Text"><text x="406.79px" y="4096.67px" style="font-family:'Monologue-Regular', 'Monologue';font-size:91.667px;fill:#fff;">L<tspan x="432.365px 459.315px 485.715px 499.282px 529.349px 545.482px 577.29px 604.24px 630.64px 646.774px 672.624px 704.34px 720.474px 770.34px 802.057px 833.865px " y="4096.67px 4096.67px 4096.67px 4096.67px 4096.67px 4096.67px 4096.67px 4096.67px 4096.67px 4096.67px 4096.67px 4096.67px 4096.67px 4096.67px 4096.67px 4096.67px ">ET&apos;S GET TO WORK</tspan></text><g transform="matrix(1,0,0,1,-551.982,675.212)"><text x="962.439px" y="3534px" style="font-family:'Monologue-Regular', 'Monologue';font-size:50px;fill:#fff;">T<tspan x="976.839px 991.539px 1005.49px 1019.64px 1028.44px 1046.04px 1062.44px 1071.24px 1086.09px 1103.39px 1120.99px 1138.34px 1147.14px 1161.84px 1178.49px 1195.89px 1210.49px 1227.44px 1240.84px 1256.44px 1270.84px 1279.64px 1296.94px 1315.69px 1332.09px " y="3534px 3534px 3534px 3534px 3534px 3534px 3534px 3534px 3534px 3534px 3534px 3534px 3534px 3534px 3534px 3534px 3534px 3534px 3534px 3534px 3534px 3534px 3534px 3534px 3534px ">ELL US YOUR EXPECTATIONS!</tspan></text><text x="962.439px" y="3644px" style="font-family:'Monologue-Regular', 'Monologue';font-size:50px;fill:#fff;">L<tspan x="976.389px 991.089px 1005.49px 1012.89px 1029.29px 1038.09px 1055.44px 1070.14px 1084.54px 1093.34px 1107.44px 1124.74px 1133.54px 1150.59px 1169.34px 1186.44px 1213.84px 1222.64px 1237.34px 1253.94px 1271.14px 1288.94px 1297.74px 1314.74px 1329.14px 1346.94px 1361.64px 1378.99px 1387.79px 1404.39px 1423.14px " y="3644px 3644px 3644px 3644px 3644px 3644px 3644px 3644px 3644px 3644px 3644px 3644px 3644px 3644px 3644px 3644px 3644px 3644px 3644px 3644px 3644px 3644px 3644px 3644px 3644px 3644px 3644px 3644px 3644px 3644px 3644px ">ET&apos;S GET TO KNOW EACH OTHER AND</tspan></text><text x="962.439px" y="3699px" style="font-family:'Monologue-Regular', 'Monologue';font-size:50px;fill:#fff;">M<tspan x="988.239px 1004.84px 1021.89px 1036.59px 1045.39px 1061.99px 1070.79px 1087.19px 1101.59px 1118.94px 1134.54px 1148.94px 1163.54px 1180.89px 1196.04px " y="3699px 3699px 3699px 3699px 3699px 3699px 3699px 3699px 3699px 3699px 3699px 3699px 3699px 3699px 3699px ">AKE A STRATEGY!</tspan></text></g></g></g><g id="TOP-BAR3" serif:id="TOP BAR"><g id="LOGOS4" serif:id="LOGOS"><g id="LOGO-24" serif:id="LOGO 2"><path d="M36.497,3749.95c-0,1.031 0.836,1.867 1.867,1.867l2.209,0c0.496,0 0.97,-0.197 1.321,-0.547c0.35,-0.35 0.546,-0.825 0.546,-1.32l0,-11.803l0.297,0c0.833,0 1.367,0.654 1.486,1.486c0,0 1.066,7.283 1.55,10.588c0.134,0.916 0.92,1.596 1.847,1.596l2.17,0c0.542,0 1.058,-0.236 1.412,-0.646c0.355,-0.41 0.514,-0.954 0.435,-1.491c-0.511,-3.495 -1.47,-10.047 -1.47,-10.047c-0.297,-1.961 -1.664,-3.388 -3.507,-3.863c2.734,-0.416 3.328,-2.199 3.507,-5.052c-0,-0 0.742,-10.945 1.053,-15.54c0.035,-0.516 -0.145,-1.023 -0.498,-1.401c-0.353,-0.378 -0.847,-0.592 -1.364,-0.592l-2.197,-0c-0.984,-0 -1.799,0.763 -1.863,1.745c-0.298,4.542 -1.075,16.382 -1.075,16.382c-0.059,0.832 -0.653,1.486 -1.486,1.486l-0.297,0l0,-17.746c0,-0.495 -0.196,-0.97 -0.546,-1.32c-0.351,-0.35 -0.825,-0.547 -1.321,-0.547l-2.209,-0c-1.031,-0 -1.867,0.836 -1.867,1.867l-0,34.898Z" style="fill:#fff;fill-rule:nonzero;"/><path d="M64.431,3712.71c-2.437,0 -4.339,1.724 -4.874,3.329c0,-0 -0.104,-0.627 -0.215,-1.293c-0.15,-0.9 -0.929,-1.56 -1.842,-1.56l-1.9,-0c-1.031,-0 -1.867,0.836 -1.867,1.867l-0,34.898c-0,1.031 0.836,1.867 1.867,1.867l2.209,0c0.495,0 0.97,-0.197 1.32,-0.547c0.351,-0.35 0.547,-0.825 0.547,-1.32l0,-30.525c0,-0.832 0.654,-1.485 1.486,-1.485c0.832,-0 1.486,0.653 1.486,1.485l-0,48.65c-0,0.495 -0.197,0.97 -0.547,1.32c-0.35,0.35 -0.825,0.546 -1.32,0.546l-33.954,0c-1.031,0 -1.867,-0.835 -1.867,-1.866l0,-71.148c0,-0.495 0.197,-0.97 0.547,-1.32c0.35,-0.35 0.825,-0.546 1.32,-0.546l68.967,-0c0.496,-0 0.97,0.196 1.321,0.546c0.35,0.35 0.546,0.825 0.546,1.32l0,71.148c0,1.031 -0.836,1.866 -1.867,1.866l-6.072,0c-0.496,0 -0.97,0.197 -1.321,0.547c-0.35,0.35 -0.546,0.825 -0.546,1.32l-0,2.213c-0,0.495 0.196,0.97 0.546,1.32c0.351,0.35 0.825,0.547 1.321,0.547l11.846,0c0.495,0 0.97,-0.197 1.32,-0.547c0.35,-0.35 0.547,-0.825 0.547,-1.32l-0,-83.04c-0,-1.031 -0.836,-1.867 -1.867,-1.867l-80.514,-0c-1.032,-0 -1.867,0.836 -1.867,1.867l-0,83.04c-0,0.495 0.196,0.97 0.546,1.32c0.351,0.35 0.825,0.547 1.321,0.547l45.671,0c0.495,0 0.969,-0.197 1.32,-0.547c0.35,-0.35 0.546,-0.825 0.546,-1.32l0,-57.151c0,-2.318 -1.307,-4.161 -4.16,-4.161Z" style="fill:#fff;fill-rule:nonzero;"/><path d="M77.804,3746.47c-0,0 -1.32,-24.634 -1.689,-31.516c-0.053,-0.991 -0.872,-1.767 -1.864,-1.767l-2.127,-0c-0.525,-0 -1.025,0.221 -1.379,0.609c-0.354,0.388 -0.528,0.907 -0.48,1.429c0.628,6.801 2.644,28.634 3.222,34.899c0.089,0.96 0.894,1.695 1.859,1.695l5.51,0c0.965,0 1.77,-0.735 1.859,-1.695c0.578,-6.265 2.594,-28.098 3.221,-34.899c0.049,-0.522 -0.125,-1.041 -0.479,-1.429c-0.354,-0.388 -0.855,-0.609 -1.38,-0.609l-2.126,-0c-0.993,-0 -1.811,0.776 -1.865,1.767c-0.368,6.882 -1.688,31.516 -1.688,31.516l-0.594,0Z" style="fill:#fff;fill-rule:nonzero;"/><path d="M82.493,3771.79c-0,-1.031 -0.836,-1.866 -1.867,-1.866l-5.05,-0c-1.031,-0 -1.867,0.835 -1.867,1.866l0,2.234c0,1.031 0.836,1.867 1.867,1.867l5.05,0c1.031,0 1.867,-0.836 1.867,-1.867l-0,-2.234Z" style="fill:#fff;"/></g></g><g id="ACTIONS3" serif:id="ACTIONS"><text x="568.827px" y="3743px" style="font-family:'AvocadoSansFont-Regular', 'Avocado Sans Font';font-size:29.989px;fill:#fff;">H<tspan x="586.461px 608.442px 633.483px " y="3743px 3743px 3743px ">OME</tspan></text><text x="742.831px" y="3743px" style="font-family:'AvocadoSansFont-Regular', 'Avocado Sans Font';font-size:29.989px;fill:#fff;">ABOU<tspan x="816.963px " y="3743px ">T</tspan></text><text x="930.296px" y="3743px" style="font-family:'AvocadoSansFont-Regular', 'Avocado Sans Font';font-size:29.989px;fill:#fff;">H<tspan x="947.929px 968.861px " y="3743px 3743px ">OW</tspan> IT W<tspan x="1064.86px " y="3743px ">O</tspan>RK<tspan x="1122.58px " y="3743px ">S</tspan></text><text x="1234.48px" y="3743px" style="font-family:'AvocadoSansFont-Regular', 'Avocado Sans Font';font-size:29.989px;fill:#fff;">C<tspan x="1250.7px 1272.83px 1293.19px 1306.33px 1322.46px " y="3743px 3743px 3743px 3743px 3743px ">ONTAC</tspan>T</text></g></g><rect id="AB-5" serif:id="AB 5" x="2.439" y="4752" width="1920" height="460" style="fill:none;"/><rect id="BG9" serif:id="BG" x="2.439" y="4752" width="1920" height="460" style="fill:#fff;"/><g id="COPYRIGHT"><text x="222.066px" y="5143.86px" style="font-family:'AvocadoSansThin-Regular', 'Avocado Sans Thin';font-size:29.336px;">2022 KNVM<tspan x="368.924px 383.768px 399.639px 403.482px " y="5143.86px 5143.86px 5143.86px 5143.86px ">edia</tspan>, Al<tspan x="451.741px " y="5143.86px ">l</tspan> r<tspan x="470.956px 474.799px 490.524px 502.698px 512.526px " y="5143.86px 5143.86px 5143.86px 5143.86px 5143.86px ">ights</tspan> r<tspan x="536.729px 551.426px 560.462px 575.834px 583.726px 595.108px 609.952px " y="5143.86px 5143.86px 5143.86px 5143.86px 5143.86px 5143.86px 5143.86px ">eserved</tspan>.</text><circle cx="205.91" cy="5134.73" r="8.695" style="fill:none;"/><clipPath id="_clip7"><circle cx="205.91" cy="5134.73" r="8.695"/></clipPath><g clip-path="url(#_clip7)"><text id="_-c-" serif:id="(c)" x="201.033px" y="5139.61px" style="font-family:'AvocadoSansThin-Regular', 'Avocado Sans Thin';font-size:20.068px;">c</text></g><circle cx="205.91" cy="5134.73" r="8.695" style="fill:none;stroke:#000;stroke-width:1.43px;"/></g><path id="LINE8" serif:id="LINE" d="M1826.09,5086.19c-0,-0.847 -0.337,-1.66 -0.936,-2.258c-0.599,-0.599 -1.411,-0.936 -2.258,-0.936c-80.104,0 -1640.81,0 -1720.92,0c-0.847,-0 -1.659,0.337 -2.258,0.936c-0.599,0.598 -0.936,1.411 -0.936,2.258c0,0.001 0,0.002 0,0.003c0,0.847 0.337,1.659 0.936,2.258c0.599,0.599 1.411,0.936 2.258,0.936c80.104,-0 1640.81,-0 1720.92,-0c0.847,-0 1.659,-0.337 2.258,-0.936c0.599,-0.599 0.936,-1.411 0.936,-2.258c-0,-0.001 -0,-0.002 -0,-0.003Z"/><g id="TEXT2" serif:id="TEXT"><g id="EXPLORE"><text x="196.438px" y="4830.89px" style="font-family:'AvocadoSansBold-Regular', 'Avocado Sans Bold';font-size:25.894px;">EXPL<tspan x="249.754px " y="4830.89px ">O</tspan>RE</text><text x="196.439px" y="4871.72px" style="font-family:'AvocadoSansFont-Regular', 'Avocado Sans Font';font-size:25.894px;">H<tspan x="211.665px 230.645px 252.267px " y="4871.72px 4871.72px 4871.72px ">OME</tspan></text><text x="196.441px" y="4912.56px" style="font-family:'AvocadoSansFont-Regular', 'Avocado Sans Font';font-size:25.894px;">ABOU<tspan x="260.452px " y="4912.56px ">T</tspan></text><text x="196.439px" y="4953.4px" style="font-family:'AvocadoSansFont-Regular', 'Avocado Sans Font';font-size:25.894px;">H<tspan x="211.665px 229.739px " y="4953.4px 4953.4px ">OW</tspan> IT W<tspan x="312.627px " y="4953.4px ">O</tspan>RK<tspan x="362.473px " y="4953.4px ">S</tspan></text><text x="196.439px" y="4994.24px" style="font-family:'AvocadoSansFont-Regular', 'Avocado Sans Font';font-size:25.894px;">C<tspan x="210.448px 229.558px 247.14px 258.482px 272.413px " y="4994.24px 4994.24px 4994.24px 4994.24px 4994.24px ">ONTAC</tspan>T</text></g><g id="PORTFOLIO"><text x="632.209px" y="4830.89px" style="font-family:'AvocadoSansBold-Regular', 'Avocado Sans Bold';font-size:25.894px;">P<tspan x="647.435px 667.011px 681.046px 695.858px 707.225px 727.06px 739.386px 744.668px " y="4830.89px 4830.89px 4830.89px 4830.89px 4830.89px 4830.89px 4830.89px 4830.89px ">ORTFOLIO</tspan></text><text x="632.21px" y="4871.72px" style="font-family:'AvocadoSansFont-Regular', 'Avocado Sans Font';font-size:25.894px;">OU<tspan x="667.944px " y="4871.72px ">R</tspan> CLI<tspan x="722.452px 733.198px 750.78px 762.64px " y="4871.72px 4871.72px 4871.72px 4871.72px ">ENTS</tspan></text></g><g id="FOLLOW"><text x="1032.38px" y="4830.89px" style="font-family:'AvocadoSansBold-Regular', 'Avocado Sans Bold';font-size:25.894px;">F<tspan x="1043.74px 1063.58px 1075.52px 1085.25px 1103.4px " y="4830.89px 4830.89px 4830.89px 4830.89px 4830.89px ">OLLOW</tspan></text><text x="1032.38px" y="4871.72px" style="font-family:'AvocadoSansFont-Regular', 'Avocado Sans Font';font-size:25.894px;">I<tspan x="1036.49px 1054.08px 1067.02px 1078.37px 1092.68px 1111.3px 1125.55px " y="4871.72px 4871.72px 4871.72px 4871.72px 4871.72px 4871.72px 4871.72px ">NSTAGRA</tspan>M</text><text x="1032.38px" y="4912.56px" style="font-family:'AvocadoSansFont-Regular', 'Avocado Sans Font';font-size:25.894px;">F<tspan x="1041.83px 1055.76px 1071.71px 1083.11px " y="4912.56px 4912.56px 4912.56px 4912.56px ">ACEB</tspan>OOK</text><text x="1032.38px" y="4953.4px" style="font-family:'AvocadoSansFont-Regular', 'Avocado Sans Font';font-size:25.894px;">LI<tspan x="1048.28px 1065.86px 1081.58px 1092.71px 1109.83px 1113.94px " y="4953.4px 4953.4px 4953.4px 4953.4px 4953.4px 4953.4px ">NKEDIN</tspan></text></g><g id="CONTACT"><text x="1418.53px" y="4830.89px" style="font-family:'AvocadoSansBold-Regular', 'Avocado Sans Bold';font-size:25.894px;">G<tspan x="1437.52px " y="4830.89px ">E</tspan>T I<tspan x="1476.25px " y="4830.89px ">N</tspan> T<tspan x="1513.41px " y="4830.89px ">O</tspan>UC<tspan x="1565.54px " y="4830.89px ">H</tspan></text><text x="1418.54px" y="4871.72px" style="font-family:'AvocadoSansFont-Regular', 'Avocado Sans Font';font-size:25.894px;">KNV@KNVM<tspan x="1556.68px 1567.82px 1584.93px 1588.92px " y="4871.72px 4871.72px 4871.72px 4871.72px ">EDIA</tspan>.C<tspan x="1622.79px 1641.77px " y="4871.72px 4871.72px ">OM</tspan></text><text x="1418.54px" y="4912.56px" style="font-family:'AvocadoSansFont-Regular', 'Avocado Sans Font';font-size:25.894px;">KR<tspan x="1449.79px 1453.78px 1466.73px 1481.31px " y="4912.56px 4912.56px 4912.56px 4912.56px ">ISTI</tspan>JA<tspan x="1515.3px " y="4912.56px ">N</tspan>@KNVM<tspan x="1622.25px 1633.38px 1650.5px 1654.49px " y="4912.56px 4912.56px 4912.56px 4912.56px ">EDIA</tspan>.C<tspan x="1688.36px 1707.34px " y="4912.56px 4912.56px ">OM</tspan></text><text x="1418.54px" y="4953.4px" style="font-family:'AvocadoSansFont-Regular', 'Avocado Sans Font';font-size:25.894px;">VIKT<tspan x="1465.59px " y="4953.4px ">O</tspan>R@KNVM<tspan x="1589.72px 1600.86px 1617.97px 1621.96px " y="4953.4px 4953.4px 4953.4px 4953.4px ">EDIA</tspan>.C<tspan x="1655.83px 1674.81px " y="4953.4px 4953.4px ">OM</tspan></text></g></g><g id="SWATCHES"></g><defs><linearGradient id="_Linear1" x1="0" y1="0" x2="1" y2="0" gradientUnits="userSpaceOnUse" gradientTransform="matrix(6.61309e-14,-1080,1080,6.61309e-14,967.5,1080)"><stop offset="0" style="stop-color:#fff;stop-opacity:0.5"/><stop offset="0.18" style="stop-color:#fff;stop-opacity:0.286275"/><stop offset="0.39" style="stop-color:#fff;stop-opacity:0.0843137"/><stop offset="1" style="stop-color:#fff;stop-opacity:0"/></linearGradient><linearGradient id="_Linear2" x1="0" y1="0" x2="1" y2="0" gradientUnits="userSpaceOnUse" gradientTransform="matrix(7.89897e-14,-1508.58,1290,9.23741e-14,962.439,2588.58)"><stop offset="0" style="stop-color:#000;stop-opacity:1"/><stop offset="0.35" style="stop-color:#000;stop-opacity:0.141176"/><stop offset="1" style="stop-color:#000;stop-opacity:0"/></linearGradient><linearGradient id="_Linear4" x1="0" y1="0" x2="1" y2="0" gradientUnits="userSpaceOnUse" gradientTransform="matrix(9.21547e-14,-1851.99,1505,1.13401e-13,963.174,4194.99)"><stop offset="0" style="stop-color:#6d00ff;stop-opacity:0.75"/><stop offset="0.45" style="stop-color:#6d00ff;stop-opacity:0.161765"/><stop offset="1" style="stop-color:#6d00ff;stop-opacity:0"/></linearGradient><linearGradient id="_Linear5" x1="0" y1="0" x2="1" y2="0" gradientUnits="userSpaceOnUse" gradientTransform="matrix(9.21547e-14,-1505,1505,9.21547e-14,963.174,5177)"><stop offset="0" style="stop-color:#000;stop-opacity:0.75"/><stop offset="0.45" style="stop-color:#000;stop-opacity:0.161765"/><stop offset="1" style="stop-color:#000;stop-opacity:0"/></linearGradient></defs></svg>